<?xml version="1.0" encoding="UTF-8" standalone="no"?>
<svg
   width="120"
   height="38.613281"
   viewBox="0 0 120 38.613281"
   version="1.1"
   id="svg41"
   sodipodi:docname="Cc-by-nc-sa_euro_icon-mod.svg"
   inkscape:version="1.1.2 (0a00cf5339, 2022-02-04)"
   xmlns:inkscape="http://www.inkscape.org/namespaces/inkscape"
   xmlns:sodipodi="http://sodipodi.sourceforge.net/DTD/sodipodi-0.dtd"
   xmlns="http://www.w3.org/2000/svg"
   xmlns:svg="http://www.w3.org/2000/svg">
  <defs
     id="defs45" />
  <sodipodi:namedview
     id="namedview43"
     pagecolor="#ffffff"
     bordercolor="#666666"
     borderopacity="1.0"
     inkscape:pageshadow="2"
     inkscape:pageopacity="0.0"
     inkscape:pagecheckerboard="0"
     showgrid="false"
     inkscape:zoom="9.3666667"
     inkscape:cx="60"
     inkscape:cy="17.615658"
     inkscape:window-width="2046"
     inkscape:window-height="1080"
     inkscape:window-x="220"
     inkscape:window-y="166"
     inkscape:window-maximized="0"
     inkscape:current-layer="svg41"
     fit-margin-top="0"
     fit-margin-left="0"
     fit-margin-right="0"
     fit-margin-bottom="0" />
  <path
     id="path4"
     style="fill:#808080;fill-opacity:1;fill-rule:nonzero;stroke:none"
     d="m 0,26.082031 v 12.023438 c 0,0.28125 0.2265625,0.507812 0.5078125,0.507812 H 119.49219 c 0.28125,0 0.50781,-0.226562 0.50781,-0.507812 V 26.082031 h -1.01562 -2 -80.554692 c -3.027344,5.46875 -8.859376,9.183594 -15.546876,9.183594 -6.695312,0 -12.5234375,-3.710938 -15.5468745,-9.183594 H 1.015625 Z" />
  <path
     style="fill:#ffffff;fill-opacity:1;fill-rule:nonzero;stroke:none"
     d="m 34.523438,16.164062 c 0.0039,7.53125 -6.097657,13.636719 -13.628907,13.640625 -7.527343,0.0078 -13.636718,-6.09375 -13.640625,-13.625 0,-0.0039 0,-0.0078 0,-0.01563 -0.00781,-7.527343 6.09375,-13.636718 13.625,-13.640625 7.53125,-0.00391 13.640625,6.09375 13.644532,13.625 0,0.0039 0,0.01172 0,0.01563 z"
     id="path6" />
  <path
     style="fill:#808080;fill-opacity:1;fill-rule:nonzero;stroke:none"
     d="m 31.972656,5.058594 c 3.023438,3.023437 4.535157,6.726562 4.535157,11.105468 0,4.378907 -1.488282,8.042969 -4.457032,10.988282 -3.15625,3.101562 -6.882812,4.652343 -11.183593,4.652343 -4.25,0 -7.910157,-1.539062 -10.984375,-4.613281 -3.078125,-3.074219 -4.613282,-6.75 -4.613282,-11.027344 0,-4.273437 1.535157,-7.976562 4.613282,-11.105468 2.996093,-3.023438 6.65625,-4.535157 10.984375,-4.535157 4.378906,0 8.082031,1.511719 11.105468,4.535157 z M 11.917969,7.09375 c -2.558594,2.582031 -3.835938,5.605469 -3.835938,9.074219 0,3.46875 1.265625,6.46875 3.792969,8.996093 2.53125,2.53125 5.542969,3.792969 9.039063,3.792969 3.496093,0 6.53125,-1.277344 9.113281,-3.832031 2.453125,-2.371094 3.679687,-5.359375 3.679687,-8.957031 0,-3.570313 -1.246093,-6.601563 -3.738281,-9.09375 -2.492187,-2.488282 -5.507812,-3.734375 -9.054687,-3.734375 -3.546875,0 -6.546875,1.25 -8.996094,3.753906 z m 6.726562,7.550781 c -0.390625,-0.851562 -0.976562,-1.277344 -1.757812,-1.277344 -1.375,0 -2.066406,0.925782 -2.066406,2.78125 0,1.855469 0.691406,2.785157 2.066406,2.785157 0.910156,0 1.5625,-0.453125 1.953125,-1.359375 L 20.75,18.59375 c -0.910156,1.617187 -2.277344,2.425781 -4.097656,2.425781 -1.40625,0 -2.53125,-0.429687 -3.378906,-1.292969 -0.84375,-0.859375 -1.269532,-2.046875 -1.269532,-3.5625 0,-1.488281 0.4375,-2.667968 1.308594,-3.542968 0.871094,-0.875 1.960938,-1.3125 3.261719,-1.3125 1.925781,0 3.304687,0.757812 4.136719,2.277343 z m 8.988282,0 c -0.390625,-0.851562 -0.964844,-1.277344 -1.71875,-1.277344 -1.40625,0 -2.109375,0.925782 -2.109375,2.78125 0,1.855469 0.703125,2.785157 2.109375,2.785157 0.914062,0 1.550781,-0.453125 1.914062,-1.359375 l 1.953125,1.019531 c -0.910156,1.617187 -2.273437,2.425781 -4.089844,2.425781 -1.40625,0 -2.527343,-0.429687 -3.375,-1.292969 -0.839843,-0.859375 -1.265625,-2.046875 -1.265625,-3.5625 0,-1.488281 0.429688,-2.667968 1.289063,-3.542968 0.855469,-0.875 1.945312,-1.3125 3.273437,-1.3125 1.921875,0 3.296875,0.757812 4.128907,2.277343 z"
     id="path8" />
  <path
     style="fill:#ffffff;fill-opacity:1;fill-rule:nonzero;stroke:none"
     d="m 62.503906,11.835937 c 0,5.929688 -4.808593,10.738282 -10.742187,10.738282 -5.929688,0 -10.738281,-4.808594 -10.738281,-10.738282 0,-5.929687 4.808593,-10.738281 10.738281,-10.738281 5.933594,0 10.742187,4.808594 10.742187,10.738281 z"
     id="path10" />
  <path
     style="fill:#000000;fill-opacity:1;fill-rule:nonzero;stroke:none"
     d="m 54.871094,8.730469 c 0,-0.414063 -0.335938,-0.75 -0.75,-0.75 h -4.742188 c -0.414062,0 -0.75,0.335937 -0.75,0.75 v 4.742187 h 1.324219 v 5.617188 h 3.59375 v -5.617188 h 1.324219 z"
     id="path12" />
  <path
     style="fill:#000000;fill-opacity:1;fill-rule:nonzero;stroke:none"
     d="m 53.371094,5.734375 c 0,0.894531 -0.722656,1.621094 -1.621094,1.621094 -0.894531,0 -1.621094,-0.726563 -1.621094,-1.621094 0,-0.894531 0.726563,-1.621094 1.621094,-1.621094 0.898438,0 1.621094,0.726563 1.621094,1.621094 z"
     id="path14" />
  <path
     style="fill:#000000;fill-opacity:1;fill-rule:evenodd;stroke:none"
     d="m 51.734375,0.003906 c -3.210937,0 -5.929687,1.121094 -8.15625,3.363281 -2.28125,2.320313 -3.421875,5.0625 -3.421875,8.234375 0,3.167969 1.140625,5.894532 3.421875,8.171875 2.285156,2.28125 5.003906,3.421875 8.15625,3.421875 3.195313,0 5.960938,-1.148437 8.304688,-3.449218 2.207031,-2.183594 3.308593,-4.898438 3.308593,-8.144532 0,-3.25 -1.121093,-5.992187 -3.367187,-8.234375 C 57.734375,1.125 54.988281,0.003906 51.734375,0.003906 Z m 0.03125,2.089844 c 2.632813,0 4.867188,0.925781 6.703125,2.78125 1.859375,1.835937 2.789063,4.078125 2.789063,6.726562 0,2.664063 -0.910157,4.878907 -2.730469,6.636719 -1.914063,1.894531 -4.167969,2.839844 -6.761719,2.839844 -2.59375,0 -4.828125,-0.9375 -6.707031,-2.8125 -1.875,-1.871094 -2.8125,-4.09375 -2.8125,-6.664063 0,-2.570312 0.945312,-4.8125 2.84375,-6.726562 1.820312,-1.855469 4.042969,-2.78125 6.675781,-2.78125 z"
     id="path16" />
  <path
     style="fill:#ffffff;fill-opacity:1;fill-rule:nonzero;stroke:none"
     d="m 48.402344,29.359375 c 0.3125,0 0.601562,0.03125 0.863281,0.08594 0.257813,0.05469 0.484375,0.144532 0.667969,0.273438 0.1875,0.125 0.328125,0.292969 0.433594,0.503906 0.101562,0.210938 0.152343,0.46875 0.152343,0.777344 0,0.335937 -0.07422,0.613281 -0.226562,0.835937 -0.152344,0.222657 -0.378906,0.402344 -0.675781,0.546875 0.410156,0.117188 0.714843,0.324219 0.917968,0.617188 0.203125,0.292969 0.304688,0.648437 0.304688,1.0625 0,0.332031 -0.06641,0.621094 -0.195313,0.867187 -0.132812,0.242188 -0.308593,0.445313 -0.527343,0.597657 -0.21875,0.15625 -0.472657,0.269531 -0.753907,0.34375 -0.28125,0.07422 -0.570312,0.113281 -0.867187,0.113281 h -3.21875 v -6.625 z m -0.1875,2.679687 c 0.261719,0 0.472656,-0.0625 0.640625,-0.183593 0.167969,-0.125 0.25,-0.324219 0.25,-0.601563 0,-0.15625 -0.02734,-0.28125 -0.08203,-0.378906 -0.05469,-0.101563 -0.128907,-0.175781 -0.222657,-0.234375 -0.09375,-0.05469 -0.199218,-0.09375 -0.320312,-0.113281 -0.121094,-0.02344 -0.246094,-0.03516 -0.378906,-0.03516 h -1.363282 v 1.546875 z m 0.08594,2.808594 c 0.140625,0 0.277344,-0.01172 0.40625,-0.03906 0.132813,-0.02734 0.246094,-0.07422 0.347657,-0.140625 0.09766,-0.0625 0.175781,-0.152344 0.234375,-0.265625 0.05859,-0.109375 0.08984,-0.25 0.08984,-0.425782 0,-0.339843 -0.09766,-0.582031 -0.289062,-0.726562 -0.191406,-0.144531 -0.445313,-0.21875 -0.761719,-0.21875 h -1.589844 v 1.816406 z"
     id="path18" />
  <path
     style="fill:#ffffff;fill-opacity:1;fill-rule:nonzero;stroke:none"
     d="m 51.09375,29.359375 h 1.632813 l 1.550781,2.617187 1.542969,-2.617187 h 1.625 l -2.460938,4.082031 v 2.542969 h -1.460937 v -2.582031 z"
     id="path20" />
  <path
     style="fill:#ffffff;fill-opacity:1;fill-rule:nonzero;stroke:none"
     d="m 98.441406,34.34375 c 0.07813,0.15625 0.183594,0.28125 0.320313,0.378906 0.132812,0.09375 0.285156,0.164063 0.464844,0.210938 0.179687,0.04687 0.363281,0.07031 0.554687,0.07031 0.128906,0 0.26953,-0.01172 0.41797,-0.03125 0.14844,-0.02344 0.28516,-0.0625 0.41797,-0.125 0.1289,-0.0625 0.23437,-0.148437 0.32422,-0.257812 0.082,-0.105469 0.1289,-0.246094 0.1289,-0.410157 0,-0.179687 -0.0586,-0.324218 -0.17187,-0.4375 -0.11328,-0.109375 -0.26563,-0.203125 -0.44922,-0.277343 -0.1875,-0.07422 -0.39844,-0.140625 -0.628907,-0.195313 -0.238282,-0.05469 -0.472657,-0.117187 -0.714844,-0.183594 -0.246094,-0.0625 -0.488281,-0.140625 -0.722656,-0.230468 -0.234375,-0.08594 -0.445313,-0.203125 -0.628907,-0.347657 -0.1875,-0.140625 -0.335937,-0.320312 -0.449218,-0.53125 -0.113282,-0.214843 -0.171875,-0.472656 -0.171875,-0.773437 0,-0.34375 0.07422,-0.636719 0.21875,-0.886719 0.144531,-0.25 0.332031,-0.460937 0.566406,-0.628906 0.234375,-0.164063 0.503906,-0.289063 0.800781,-0.371094 0.292969,-0.07813 0.589844,-0.117187 0.886719,-0.117187 0.347656,0 0.679691,0.03906 0.996091,0.113281 0.32032,0.07813 0.60157,0.203125 0.84766,0.378906 0.25,0.171875 0.44531,0.394531 0.58984,0.660156 0.14453,0.273438 0.21875,0.597657 0.21875,0.980469 h -1.41406 c -0.0117,-0.199219 -0.0547,-0.363281 -0.125,-0.492187 -0.0703,-0.128907 -0.16406,-0.230469 -0.28125,-0.304688 -0.11719,-0.07422 -0.25,-0.128906 -0.40234,-0.15625 -0.148441,-0.03125 -0.31641,-0.04687 -0.492191,-0.04687 -0.117188,0 -0.234375,0.01172 -0.351563,0.03516 -0.117187,0.02734 -0.222656,0.07031 -0.316406,0.128907 -0.09766,0.0625 -0.175781,0.140625 -0.238281,0.234375 -0.05859,0.09375 -0.08984,0.210937 -0.08984,0.351562 0,0.128906 0.02344,0.234375 0.07031,0.316406 0.05078,0.07813 0.148437,0.15625 0.292968,0.222657 0.148438,0.06641 0.347657,0.136718 0.601563,0.203125 0.257812,0.06641 0.59375,0.15625 1.00781,0.261718 0.1211,0.02344 0.29297,0.07031 0.51172,0.132813 0.21875,0.06641 0.4375,0.167969 0.65234,0.3125 0.21875,0.140625 0.40235,0.332031 0.5625,0.570312 0.15625,0.238282 0.23438,0.542969 0.23438,0.914063 0,0.300781 -0.0586,0.582031 -0.17578,0.84375 -0.11719,0.257812 -0.29297,0.484375 -0.52344,0.671875 -0.23047,0.1875 -0.51953,0.335937 -0.86328,0.441406 -0.34375,0.105469 -0.73828,0.15625 -1.191406,0.15625 -0.363282,0 -0.71875,-0.04297 -1.0625,-0.132812 -0.34375,-0.08984 -0.644532,-0.230469 -0.90625,-0.425782 -0.265625,-0.191406 -0.472657,-0.4375 -0.628907,-0.734375 -0.152343,-0.296875 -0.226562,-0.648437 -0.222656,-1.054687 h 1.414063 c 0,0.222656 0.03906,0.410156 0.121093,0.5625 z"
     id="path22" />
  <path
     style="fill:#ffffff;fill-opacity:1;fill-rule:nonzero;stroke:none"
     d="m 106.64453,29.359375 2.47656,6.625 h -1.51171 l -0.5,-1.476563 h -2.47657 l -0.51953,1.476563 h -1.46484 l 2.5039,-6.625 z m 0.0859,4.0625 -0.83594,-2.429688 h -0.0195 l -0.85937,2.429688 z"
     id="path24" />
  <path
     style="fill:#ffffff;fill-opacity:1;fill-rule:nonzero;stroke:none"
     d="m 72.519531,29.359375 2.765625,4.445312 h 0.01563 v -4.445312 h 1.367188 v 6.625 h -1.457036 l -2.757813,-4.433594 h -0.01953 v 4.433594 h -1.363281 v -6.625 z"
     id="path26" />
  <path
     style="fill:#ffffff;fill-opacity:1;fill-rule:nonzero;stroke:none"
     d="M 82.195313,31.125 C 82.109375,30.984375 82,30.863281 81.871094,30.757812 c -0.128906,-0.105468 -0.277344,-0.1875 -0.441406,-0.246093 -0.164063,-0.05859 -0.335938,-0.08594 -0.515625,-0.08594 -0.328125,0 -0.605469,0.0625 -0.835938,0.1875 -0.226562,0.128906 -0.414062,0.296875 -0.554687,0.511719 -0.140625,0.210937 -0.246094,0.453125 -0.3125,0.726562 -0.0625,0.273438 -0.09766,0.554688 -0.09766,0.84375 0,0.277344 0.03516,0.550782 0.09766,0.8125 0.06641,0.261719 0.171875,0.5 0.3125,0.707032 0.140625,0.210937 0.328125,0.378906 0.554687,0.507812 0.230469,0.125 0.507813,0.1875 0.835938,0.1875 0.445312,0 0.792968,-0.132812 1.042968,-0.40625 0.253907,-0.273437 0.40625,-0.632812 0.460938,-1.078125 h 1.410156 c -0.03516,0.414063 -0.132812,0.789063 -0.289062,1.125 -0.152344,0.332031 -0.359375,0.617188 -0.609375,0.851563 -0.253907,0.238281 -0.550782,0.417968 -0.890625,0.542968 -0.339844,0.121094 -0.714844,0.183594 -1.125,0.183594 -0.507813,0 -0.960938,-0.08594 -1.367188,-0.265625 -0.40625,-0.171875 -0.746094,-0.417969 -1.027344,-0.726562 -0.277343,-0.308594 -0.492187,-0.671875 -0.640625,-1.089844 -0.148437,-0.417969 -0.222656,-0.867188 -0.222656,-1.351563 0,-0.496093 0.07422,-0.953125 0.222656,-1.378906 0.148438,-0.421875 0.363282,-0.792969 0.640625,-1.109375 0.28125,-0.3125 0.621094,-0.5625 1.027344,-0.742187 0.40625,-0.179688 0.859375,-0.265625 1.367188,-0.265625 0.367187,0 0.710937,0.05078 1.035156,0.15625 0.324219,0.105468 0.617187,0.257812 0.871094,0.460937 0.257812,0.199219 0.46875,0.449219 0.636718,0.746094 0.167969,0.296875 0.273438,0.636719 0.316407,1.019531 H 82.363281 C 82.335941,31.417969 82.281251,31.261719 82.195313,31.125 Z"
     id="path28" />
  <path
     style="fill:#ffffff;fill-opacity:1;fill-rule:nonzero;stroke:none"
     d="m 114.57813,11.59375 c 0.008,5.84375 -4.73047,10.585937 -10.57422,10.59375 -5.84766,0 -10.589847,-4.730469 -10.593754,-10.578125 0,-0.0039 0,-0.01172 0,-0.01563 -0.0039,-5.84375 4.730469,-10.585938 10.578124,-10.589844 5.84375,-0.00781 10.58594,4.730469 10.58985,10.574219 0,0.0039 0,0.01172 0,0.01563 z"
     id="path30" />
  <path
     style="fill:#000000;fill-opacity:1;fill-rule:nonzero;stroke:none"
     d="m 103.91797,0 c -3.21094,0 -5.929689,1.121094 -8.156251,3.359375 -2.28125,2.320312 -3.425781,5.066406 -3.425781,8.234375 0,3.167969 1.144531,5.894531 3.425781,8.175781 2.285156,2.28125 5.003911,3.417969 8.156251,3.417969 3.19531,0 5.96094,-1.148438 8.30078,-3.449219 2.20703,-2.183594 3.3125,-4.898437 3.3125,-8.144531 0,-3.246094 -1.125,-5.992188 -3.36719,-8.234375 C 109.91797,1.121094 107.17188,0 103.91797,0 Z m 0.0312,2.085937 c 2.62891,0 4.86328,0.925782 6.70312,2.785157 1.85938,1.832031 2.78516,4.074218 2.78516,6.722656 0,2.667969 -0.90625,4.878906 -2.72656,6.640625 -1.91406,1.890625 -4.17188,2.839844 -6.76172,2.839844 -2.59375,0 -4.828126,-0.9375 -6.707032,-2.8125 -1.875,-1.875 -2.816407,-4.097657 -2.816407,-6.667969 0,-2.570313 0.949219,-4.8125 2.847657,-6.722656 1.816406,-1.859375 4.042972,-2.785157 6.675782,-2.785157 z"
     id="path32" />
  <path
     style="fill:#000000;fill-opacity:1;fill-rule:nonzero;stroke:none"
     d="m 98.777344,9.957031 c 0.464844,-2.917969 2.515626,-4.476562 5.093746,-4.476562 3.69922,0 5.95704,2.6875 5.95704,6.269531 0,3.492187 -2.40235,6.207031 -6.01563,6.207031 -2.48828,0 -4.714844,-1.527344 -5.121094,-4.535156 h 2.921874 c 0.0859,1.5625 1.09766,2.109375 2.54688,2.109375 1.64453,0 2.71484,-1.53125 2.71484,-3.871094 0,-2.453125 -0.92187,-3.753906 -2.66016,-3.753906 -1.26953,0 -2.37109,0.464844 -2.60156,2.050781 l 0.84766,-0.0039 -2.29688,2.296875 -2.300779,-2.296875 z"
     id="path34" />
  <path
     style="fill:#ffffff;fill-opacity:1;fill-rule:nonzero;stroke:none"
     d="m 87.800781,11.605469 c 0.0078,5.5 -4.449218,9.960937 -9.953125,9.964843 -5.5,0.0039 -9.960937,-4.453125 -9.964843,-9.953125 0,-0.0039 0,-0.0078 0,-0.01172 -0.0039,-5.503907 4.453125,-9.964844 9.953125,-9.96875 5.5,-0.00391 9.960937,4.453125 9.964843,9.953125 0,0.0039 0,0.0078 0,0.01563 z"
     id="path36" />
  <path
     style="fill:#000000;fill-opacity:1;fill-rule:nonzero;stroke:none"
     d="M 86.070313,3.367187 C 83.824219,1.125 81.078125,0.003906 77.828125,0.003906 c -3.214844,0 -5.933594,1.121094 -8.15625,3.363281 -2.285156,2.320313 -3.425781,5.066407 -3.425781,8.234375 0,3.171875 1.140625,5.894532 3.425781,8.175782 2.28125,2.28125 5,3.421875 8.15625,3.421875 3.191406,0 5.960938,-1.152344 8.300781,-3.449219 2.207032,-2.183594 3.308594,-4.902344 3.308594,-8.148438 0,-3.246093 -1.121094,-5.992187 -3.367187,-8.234375 z m -1.449219,14.875 c -1.917969,1.894532 -4.171875,2.839844 -6.765625,2.839844 -2.59375,0 -4.828125,-0.9375 -6.703125,-2.8125 -1.878906,-1.875 -2.816406,-4.097656 -2.816406,-6.667969 0,-1.085937 0.171875,-2.113281 0.511718,-3.082031 l 3.070313,1.359375 h -0.21875 v 1.378906 h 1.085937 c 0,0.191407 -0.01953,0.386719 -0.01953,0.582032 v 0.328125 H 71.69922 v 1.378906 h 1.261719 c 0.171875,1.03125 0.5625,1.863281 1.085937,2.523437 1.085938,1.4375 2.832031,2.214844 4.738281,2.214844 1.242188,0 2.367188,-0.367187 3.027344,-0.738281 l -0.46875,-2.15625 c -0.40625,0.214844 -1.316406,0.507812 -2.210937,0.507812 -0.972657,0 -1.882813,-0.292968 -2.503907,-0.992187 C 76.335938,14.578125 76.125,14.128906 75.988281,13.546875 h 4.21875 l 6,2.65625 c -0.417968,0.734375 -0.945312,1.414062 -1.585937,2.039062 z m -7.542969,-6.074218 -0.02734,-0.01953 0.04297,0.01953 z M 80.6875,11.257812 h 0.171875 V 9.878906 H 77.574219 L 76.238281,9.289062 c 0.117188,-0.261718 0.25,-0.492187 0.410157,-0.671875 0.601562,-0.738281 1.457031,-1.050781 2.386718,-1.050781 0.855469,0 1.652344,0.253906 2.15625,0.46875 L 81.734375,5.820312 C 81.035156,5.511719 80.007813,5.238281 78.824219,5.238281 c -1.828125,0 -3.378906,0.738281 -4.488281,1.980469 C 74.09375,7.503906 73.878906,7.820312 73.6875,8.15625 L 69.871094,6.46875 C 70.242188,5.914062 70.675781,5.382812 71.179688,4.875 73,3.019531 75.222656,2.09375 77.855469,2.09375 c 2.632812,0 4.867187,0.925781 6.707031,2.78125 1.855469,1.835937 2.785156,4.078125 2.785156,6.726562 0,0.875 -0.09766,1.695313 -0.292968,2.472657 z"
     id="path38" />
</svg>
