<?xml version="1.0" encoding="UTF-8" standalone="no"?>
<!-- Created with Inkscape (http://www.inkscape.org/) -->

<svg
   width="110.50372mm"
   height="127.5576mm"
   viewBox="0 0 110.50372 127.5576"
   version="1.1"
   id="svg1"
   xml:space="preserve"
   inkscape:version="1.3 (0e150ed6c4, 2023-07-21)"
   sodipodi:docname="BrainHalfHalf.svg"
   inkscape:export-filename="BrainHalfHalf-120x139.png"
   inkscape:export-xdpi="27.582783"
   inkscape:export-ydpi="27.582783"
   xmlns:inkscape="http://www.inkscape.org/namespaces/inkscape"
   xmlns:sodipodi="http://sodipodi.sourceforge.net/DTD/sodipodi-0.dtd"
   xmlns:xlink="http://www.w3.org/1999/xlink"
   xmlns="http://www.w3.org/2000/svg"
   xmlns:svg="http://www.w3.org/2000/svg"><sodipodi:namedview
     id="namedview1"
     pagecolor="#ffffff"
     bordercolor="#666666"
     borderopacity="1.0"
     inkscape:showpageshadow="2"
     inkscape:pageopacity="0.0"
     inkscape:pagecheckerboard="0"
     inkscape:deskcolor="#d1d1d1"
     inkscape:document-units="mm"
     inkscape:zoom="2.2304935"
     inkscape:cx="181.12584"
     inkscape:cy="221.47566"
     inkscape:window-width="2500"
     inkscape:window-height="1418"
     inkscape:window-x="60"
     inkscape:window-y="0"
     inkscape:window-maximized="1"
     inkscape:current-layer="g1" /><defs
     id="defs1"><linearGradient
       id="linearGradient13"
       inkscape:collect="always"><stop
         style="stop-color:#b7c4c8;stop-opacity:1;"
         offset="0"
         id="stop13" /><stop
         style="stop-color:#b7c4c8;stop-opacity:0;"
         offset="1"
         id="stop14" /></linearGradient><linearGradient
       id="linearGradient10"
       inkscape:collect="always"><stop
         style="stop-color:#b7c4c8;stop-opacity:1;"
         offset="0"
         id="stop10" /><stop
         style="stop-color:#b7c4c8;stop-opacity:0;"
         offset="1"
         id="stop11" /></linearGradient><clipPath
       clipPathUnits="userSpaceOnUse"
       id="clipPath1"><rect
         style="fill:none;stroke:#ff0000;stroke-width:3;stroke-linejoin:round;stroke-dasharray:none;paint-order:stroke markers fill"
         id="rect2"
         width="155.78114"
         height="131.31657"
         x="28.536367"
         y="17.202768"
         rx="1.0967668"
         ry="1.0967668" /></clipPath><linearGradient
       inkscape:collect="always"
       xlink:href="#linearGradient10"
       id="linearGradient11"
       x1="47.072086"
       y1="81.598381"
       x2="102.88056"
       y2="81.598381"
       gradientUnits="userSpaceOnUse" /><linearGradient
       inkscape:collect="always"
       xlink:href="#linearGradient13"
       id="linearGradient14"
       x1="-118.32877"
       y1="26.873215"
       x2="-103.75703"
       y2="26.873215"
       gradientUnits="userSpaceOnUse" /><linearGradient
       inkscape:collect="always"
       xlink:href="#linearGradient13"
       id="linearGradient15"
       x1="-139.88583"
       y1="42.647591"
       x2="-125.31409"
       y2="42.647591"
       gradientUnits="userSpaceOnUse"
       gradientTransform="translate(5.2916666)" /><linearGradient
       inkscape:collect="always"
       xlink:href="#linearGradient13"
       id="linearGradient16"
       x1="-153.50539"
       y1="59.902081"
       x2="-138.93364"
       y2="59.902081"
       gradientUnits="userSpaceOnUse"
       gradientTransform="translate(5.2916666)" /><linearGradient
       inkscape:collect="always"
       xlink:href="#linearGradient13"
       id="linearGradient17"
       x1="-167.12495"
       y1="81.526146"
       x2="-152.55321"
       y2="81.526146"
       gradientUnits="userSpaceOnUse"
       gradientTransform="translate(13.229166)" /><linearGradient
       inkscape:collect="always"
       xlink:href="#linearGradient13"
       id="linearGradient18"
       x1="-139.88583"
       y1="120.4047"
       x2="-125.31409"
       y2="120.4047"
       gradientUnits="userSpaceOnUse"
       gradientTransform="translate(5.2916666)" /><linearGradient
       inkscape:collect="always"
       xlink:href="#linearGradient13"
       id="linearGradient19"
       x1="-118.32877"
       y1="136.17908"
       x2="-103.75703"
       y2="136.17908"
       gradientUnits="userSpaceOnUse" /><linearGradient
       inkscape:collect="always"
       xlink:href="#linearGradient13"
       id="linearGradient20"
       x1="-153.50539"
       y1="103.15021"
       x2="-138.93364"
       y2="103.15021"
       gradientUnits="userSpaceOnUse"
       gradientTransform="translate(5.2916666)" /><filter
       style="color-interpolation-filters:sRGB"
       inkscape:label="Drop Shadow"
       id="filter6"
       x="-0.017676666"
       y="-0.015222018"
       width="1.0428989"
       height="1.0369474"><feFlood
         result="flood"
         in="SourceGraphic"
         flood-opacity="0.443137"
         flood-color="rgb(0,0,0)"
         id="feFlood5" /><feGaussianBlur
         result="blur"
         in="SourceGraphic"
         stdDeviation="0.600000"
         id="feGaussianBlur5" /><feOffset
         result="offset"
         in="blur"
         dx="0.800000"
         dy="0.800000"
         id="feOffset5" /><feComposite
         result="comp1"
         operator="in"
         in="flood"
         in2="offset"
         id="feComposite5" /><feComposite
         result="comp2"
         operator="over"
         in="SourceGraphic"
         in2="comp1"
         id="feComposite6" /></filter></defs><g
     inkscape:label="Layer 1"
     inkscape:groupmode="layer"
     id="layer1"
     transform="translate(-45.632088,-18.147343)"><g
       id="g1"
       style="filter:url(#filter6)"><path
         style="fill:url(#linearGradient11);fill-rule:evenodd;stroke:#216778;stroke-width:0.865;stroke-linecap:butt;stroke-linejoin:miter;stroke-dasharray:none;stroke-opacity:1"
         d="M 101.20981,39.441819 C 100.211,32.444152 94.016785,25.435178 85.747983,25.514426 c -3.564557,0.03421 -12.775071,3.845883 -11.840106,13.37137 2.222433,22.642301 14.85061,16.555157 16.378742,18.436709 0.76698,0.944362 0.582856,2.59607 -0.02545,3.649663 -0.620027,1.073926 -9.950828,-2.760348 -12.865199,-4.774909 -3.215088,-2.222433 -5.666961,5.374345 -7.824124,8.733107 -0.532206,0.828659 -1.949409,-0.832935 -2.416475,-1.699985 -1.803297,-3.347591 5.220542,-11.743902 7.728895,-9.694352 0.296139,0.241973 -3.310993,-2.292859 -3.873273,-15.829808 -0.114688,-2.761003 -11.843214,8.887092 -11.204319,12.238985 0.638892,3.351894 0.129572,6.979676 -0.839374,8.92549 -2.615071,5.251503 -9.510368,8.685496 -10.508765,14.580484 -0.917977,5.420154 -1.371322,10.163437 -0.44432,14.73393 0.927002,4.57049 5.516308,9.158388 5.211107,11.679041 -0.305198,2.520659 -3.182633,8.992009 1.142334,16.716709 7.506398,13.40696 13.148632,12.01636 13.241258,9.83525 0.09262,-2.1811 1.046738,-13.95956 1.548614,-14.75728 0.501877,-0.7977 -7.241336,-3.15078 -7.956576,-7.39294 -0.416854,-2.47242 -1.2419,-5.604405 -3.09e-4,-6.533139 1.24158,-0.928734 2.459959,-1.145359 2.657095,0.782423 0.197134,1.927796 1.354599,7.313056 3.957202,8.281026 1.92358,0.71544 3.456295,2.4685 4.173954,1.39163 0.71766,-1.07688 4.065172,-3.83517 6.589378,-5.29103 2.524206,-1.45586 6.00605,-1.59568 6.327289,-1.55189 0.321243,0.0438 1.28862,-6.317279 2.321773,-7.387886 1.033155,-1.070606 5.396551,-4.678284 7.466514,-4.800516 2.06997,-0.122227 2.978993,0.38669 3.204563,1.561566 0.22557,1.174876 -2.409853,1.746631 -4.081356,2.835038 -2.983311,1.942627 -3.97804,2.835242 -4.966824,4.93812 -0.988783,2.102878 1.276093,6.702498 -0.628879,6.910018 -1.68718,0.18378 -1.299573,-0.71522 -4.555106,-0.18513 -3.790987,0.61727 -10.36227,4.8119 -11.451753,10.04283 -1.022931,4.91139 -1.23369,10.98509 0.778032,14.84876 2.011718,3.86365 5.415761,5.85177 8.879774,6.935 3.464016,1.08325 6.258658,0.73369 9.698876,-0.59751 3.440233,-1.3312 6.892226,-4.48013 8.475165,-7.59281 1.58291,-3.11271 1.56227,-9.0464 1.56227,-9.0464 l -0.0187,-8.4602 c -3.258816,0.42505 -5.842852,1.81956 -8.759135,4.52437 -0.31783,0.29482 -1.420492,3.75126 -2.980723,5.47802 -0.740732,0.81979 -3.559598,0.22101 -3.209798,-0.827 1.263927,-3.78686 3.94869,-6.25201 5.204581,-7.94488 2.15627,-2.90661 9.795275,-4.68322 9.795275,-4.68322 l 0.0978,-28.169336 c 0,0 -2.504669,-4.998504 -4.866752,-6.067605 -1.69174,-0.765712 -5.565344,0.249136 -5.565344,0.249136 -0.749038,0.03351 -6.62205,4.997128 -8.68868,7.620748 -1.444143,1.833364 -6.020065,3.574879 -6.020065,3.574879 -0.805146,0.478117 -6.524768,-0.585103 -7.38799,-1.296615 -1.320034,-1.088039 -0.352717,3.600539 -1.431295,4.928314 -1.174002,1.445244 -3.167221,2.028092 -4.93124,2.624112 -1.255398,0.424165 -2.900489,1.486669 -3.922898,0.643687 -0.849816,-0.700678 -0.826275,-2.47808 -0.09629,-3.302869 0.514037,-0.580807 4.130284,-0.52373 5.645277,-2.404668 1.573501,-1.953574 2.182383,-4.647781 1.701999,-7.109812 -0.258675,-1.325752 -1.01325,-2.631302 -2.052734,-3.493859 -1.455457,-1.207737 -3.989861,-0.596344 -5.338206,-1.922599 -0.421298,-0.414396 -0.823331,-1.10001 -0.628196,-1.657809 0.260264,-0.743979 1.252582,-1.099927 2.033512,-1.20665 2.009411,-0.274611 4.288979,0.321344 5.873633,1.58705 1.791252,1.430725 1.909973,4.195326 3.217074,6.078687 0.658568,0.948909 1.248816,2.115895 2.302137,2.589877 1.604723,0.722109 3.386487,0.691986 5.279123,0.0081 2.311644,-0.835245 3.964182,-3.055361 5.833256,-4.651572 2.63675,-2.251811 5.181654,-5.058483 8.532463,-5.950212 2.469007,-0.657065 5.374354,-0.511667 7.634677,0.679462 1.341939,0.707171 2.895099,3.51089 2.895099,3.51089 L 101.678,53.002975 c 0,0 -5.280972,-1.605432 -7.482999,-2.925705 -2.20202,-1.320278 -4.27451,-2.858769 -5.601232,-4.790239 -1.326721,-1.931468 -2.99016,-4.897935 -2.233734,-6.30522 0.756429,-1.40728 1.322041,-1.347612 2.811213,-0.699638 1.489173,0.647972 2.117165,4.319001 3.319033,5.989083 1.20188,1.670083 4.336733,3.177336 6.084903,4.054599 1.748196,0.877261 3.205816,1.354917 3.205816,1.354917 0.10984,-3.603423 -0.0945,-6.667296 -0.57119,-10.238953 z"
         id="path2"
         sodipodi:nodetypes="sssssssssszssszszzszzszzzzssszsssssssccssssccsssssssssssssssssssssscczzzzzzcs" /><path
         style="fill:none;fill-rule:evenodd;stroke:#216778;stroke-width:0.865;stroke-linecap:butt;stroke-linejoin:miter;stroke-dasharray:none;stroke-opacity:1"
         d="m 111.04293,33.726589 c -5e-5,95.599111 -5e-5,95.599111 -5e-5,95.599111"
         id="path4" /><path
         style="fill:none;fill-rule:evenodd;stroke:#216778;stroke-width:0.965;stroke-linecap:butt;stroke-linejoin:miter;stroke-dasharray:none;stroke-opacity:1"
         d="m 111.04291,64.191908 h 8.75743 l 3.97977,-15.668893"
         id="path8"
         sodipodi:nodetypes="ccc" /><path
         style="fill:none;fill-rule:evenodd;stroke:#216778;stroke-width:0.965;stroke-linecap:butt;stroke-linejoin:miter;stroke-dasharray:none;stroke-opacity:1"
         d="m 111.04291,73.598025 h 14.68535 l 3.16507,-13.696025 5.18115,8.1e-5"
         id="path8-3"
         sodipodi:nodetypes="cccc" /><path
         style="fill:none;fill-rule:evenodd;stroke:#216778;stroke-width:0.965;stroke-linecap:butt;stroke-linejoin:miter;stroke-dasharray:none;stroke-opacity:1"
         d="m 111.04291,89.552183 h 14.68535 l 3.16507,13.597817 5.18115,2.1e-4"
         id="path8-3-7"
         sodipodi:nodetypes="cccc" /><path
         style="fill:none;fill-rule:evenodd;stroke:#216778;stroke-width:0.965;stroke-linecap:butt;stroke-linejoin:miter;stroke-dasharray:none;stroke-opacity:1"
         d="M 111.04291,98.587737 H 119.8 l 3.52418,16.240623"
         id="path8-6"
         sodipodi:nodetypes="ccc" /><path
         style="fill:none;fill-rule:evenodd;stroke:#216778;stroke-width:0.965;stroke-linecap:butt;stroke-linejoin:miter;stroke-dasharray:none;stroke-opacity:1"
         d="m 111.0429,81.526146 h 28.71367"
         id="path9"
         sodipodi:nodetypes="cc" /><path
         style="fill:url(#linearGradient17);stroke:#216778;stroke-width:0.865;stroke-linejoin:round;stroke-dasharray:none;stroke-opacity:1;paint-order:stroke markers fill"
         id="path3-1-8-5"
         sodipodi:type="arc"
         sodipodi:cx="-146.60994"
         sodipodi:cy="81.526146"
         sodipodi:rx="6.8533721"
         sodipodi:ry="6.8533721"
         sodipodi:start="1.5708036"
         sodipodi:end="1.5706309"
         sodipodi:open="true"
         sodipodi:arc-type="arc"
         d="m -146.60999,88.379518 a 6.8533721,6.8533721 0 0 1 -6.85332,-6.853126 6.8533721,6.8533721 0 0 1 6.85283,-6.853618 6.8533721,6.8533721 0 0 1 6.85391,6.852534 6.8533721,6.8533721 0 0 1 -6.85224,6.85421"
         transform="scale(-1,1)" /><path
         style="fill:url(#linearGradient16);stroke:#216778;stroke-width:0.865;stroke-linejoin:round;stroke-dasharray:none;stroke-opacity:1;paint-order:stroke markers fill"
         id="path3-1-8"
         sodipodi:type="arc"
         sodipodi:cx="-140.92786"
         sodipodi:cy="59.902081"
         sodipodi:rx="6.8533721"
         sodipodi:ry="6.8533721"
         sodipodi:start="1.5708036"
         sodipodi:end="1.5706309"
         sodipodi:open="true"
         sodipodi:arc-type="arc"
         d="m -140.92791,66.755453 a 6.8533721,6.8533721 0 0 1 -6.85332,-6.853126 6.8533721,6.8533721 0 0 1 6.85283,-6.853619 6.8533721,6.8533721 0 0 1 6.85392,6.852535 6.8533721,6.8533721 0 0 1 -6.85224,6.85421"
         transform="scale(-1,1)" /><path
         style="fill:url(#linearGradient20);stroke:#216778;stroke-width:0.865;stroke-linejoin:round;stroke-dasharray:none;stroke-opacity:1;paint-order:stroke markers fill"
         id="path3-1-8-0"
         sodipodi:type="arc"
         sodipodi:cx="-140.92786"
         sodipodi:cy="103.15021"
         sodipodi:rx="6.8533721"
         sodipodi:ry="6.8533721"
         sodipodi:start="1.5708036"
         sodipodi:end="1.5706309"
         sodipodi:open="true"
         sodipodi:arc-type="arc"
         d="m -140.92791,110.00358 a 6.8533721,6.8533721 0 0 1 -6.85332,-6.85313 6.8533721,6.8533721 0 0 1 6.85283,-6.853615 6.8533721,6.8533721 0 0 1 6.85392,6.852535 6.8533721,6.8533721 0 0 1 -6.85224,6.85421"
         transform="scale(-1,1)" /><path
         style="fill:url(#linearGradient15);stroke:#216778;stroke-width:0.865;stroke-linejoin:round;stroke-dasharray:none;stroke-opacity:1;paint-order:stroke markers fill"
         id="path3-1"
         sodipodi:type="arc"
         sodipodi:cx="-127.3083"
         sodipodi:cy="42.647591"
         sodipodi:rx="6.8533721"
         sodipodi:ry="6.8533721"
         sodipodi:start="1.5708036"
         sodipodi:end="1.5706309"
         sodipodi:open="true"
         sodipodi:arc-type="arc"
         d="m -127.30835,49.500963 a 6.8533721,6.8533721 0 0 1 -6.85332,-6.853126 6.8533721,6.8533721 0 0 1 6.85283,-6.853618 6.8533721,6.8533721 0 0 1 6.85392,6.852534 6.8533721,6.8533721 0 0 1 -6.85224,6.85421"
         transform="scale(-1,1)" /><path
         style="fill:url(#linearGradient18);stroke:#216778;stroke-width:0.865;stroke-linejoin:round;stroke-dasharray:none;stroke-opacity:1;paint-order:stroke markers fill"
         id="path3-1-6"
         sodipodi:type="arc"
         sodipodi:cx="-127.3083"
         sodipodi:cy="120.4047"
         sodipodi:rx="6.8533721"
         sodipodi:ry="6.8533721"
         sodipodi:start="1.5708036"
         sodipodi:end="1.5706309"
         sodipodi:open="true"
         sodipodi:arc-type="arc"
         d="m -127.30835,127.25807 a 6.8533721,6.8533721 0 0 1 -6.85332,-6.85312 6.8533721,6.8533721 0 0 1 6.85283,-6.85362 6.8533721,6.8533721 0 0 1 6.85392,6.85253 6.8533721,6.8533721 0 0 1 -6.85224,6.85421"
         transform="scale(-1,1)" /><path
         style="fill:url(#linearGradient14);stroke:#216778;stroke-width:0.865;stroke-linejoin:round;stroke-dasharray:none;stroke-opacity:1;paint-order:stroke markers fill"
         id="path3"
         sodipodi:type="arc"
         sodipodi:cx="-111.0429"
         sodipodi:cy="26.873215"
         sodipodi:rx="6.8533721"
         sodipodi:ry="6.8533721"
         sodipodi:start="1.5708036"
         sodipodi:end="1.5706309"
         sodipodi:open="true"
         sodipodi:arc-type="arc"
         d="m -111.04295,33.726587 a 6.8533721,6.8533721 0 0 1 -6.85332,-6.853126 6.8533721,6.8533721 0 0 1 6.85283,-6.853618 6.8533721,6.8533721 0 0 1 6.85391,6.852534 6.8533721,6.8533721 0 0 1 -6.85224,6.85421"
         transform="scale(-1,1)" /><path
         style="fill:url(#linearGradient19);stroke:#216778;stroke-width:0.865;stroke-linejoin:round;stroke-dasharray:none;stroke-opacity:1;paint-order:stroke markers fill"
         id="path3-9"
         sodipodi:type="arc"
         sodipodi:cx="-111.0429"
         sodipodi:cy="136.17908"
         sodipodi:rx="6.8533721"
         sodipodi:ry="6.8533721"
         sodipodi:start="1.5708036"
         sodipodi:end="1.5706309"
         sodipodi:open="true"
         sodipodi:arc-type="arc"
         d="m -111.04295,143.03245 a 6.8533721,6.8533721 0 0 1 -6.85332,-6.85313 6.8533721,6.8533721 0 0 1 6.85283,-6.85361 6.8533721,6.8533721 0 0 1 6.85391,6.85253 6.8533721,6.8533721 0 0 1 -6.85224,6.85421"
         transform="scale(-1,1)" /></g></g></svg>
