<?xml version="1.0" encoding="UTF-8" standalone="no"?>
<!-- Generator: Adobe Illustrator 19.2.1, SVG Export Plug-In . SVG Version: 6.00 Build 0)  -->

<svg
   version="1.1"
   id="Layer_1"
   x="0px"
   y="0px"
   width="24px"
   height="24px"
   viewBox="0 0 24 24"
   style="enable-background:new 0 0 24 24;"
   xml:space="preserve"
   sodipodi:docname="info-green.svg"
   inkscape:export-filename="info-green.jpg"
   inkscape:export-xdpi="215.33"
   inkscape:export-ydpi="215.33"
   inkscape:version="1.4.2 (unknown)"
   xmlns:inkscape="http://www.inkscape.org/namespaces/inkscape"
   xmlns:sodipodi="http://sodipodi.sourceforge.net/DTD/sodipodi-0.dtd"
   xmlns="http://www.w3.org/2000/svg"
   xmlns:svg="http://www.w3.org/2000/svg"><defs
   id="defs1" /><sodipodi:namedview
   id="namedview1"
   pagecolor="#ffffff"
   bordercolor="#666666"
   borderopacity="1.0"
   inkscape:showpageshadow="2"
   inkscape:pageopacity="0.0"
   inkscape:pagecheckerboard="0"
   inkscape:deskcolor="#d1d1d1"
   inkscape:zoom="47.583333"
   inkscape:cx="11.989492"
   inkscape:cy="12"
   inkscape:window-width="2544"
   inkscape:window-height="1344"
   inkscape:window-x="83"
   inkscape:window-y="58"
   inkscape:window-maximized="0"
   inkscape:current-layer="Layer_1" />
<style
   type="text/css"
   id="style1">
	.icon{fill: #43B02A;}
</style>
<path
   class="icon"
   d="M12,1.3C6.1,1.3,1.3,6.1,1.3,12S6.1,22.7,12,22.7S22.7,17.9,22.7,12S17.9,1.3,12,1.3z M13.7,15.9c-0.8,1.2-1.6,2.1-3,2.1  c-0.9-0.2-1.3-0.8-1.1-1.5l1.8-5.9c0-0.1,0-0.3-0.2-0.3c-0.1,0-0.4,0.1-0.6,0.4L9.5,12c0-0.2,0-0.6,0-0.7c0.8-1.2,2.1-2.2,3-2.2  c0.9,0.1,1.3,0.8,1.1,1.5l-1.8,5.9c0,0.1,0,0.3,0.2,0.3c0.1,0,0.4-0.1,0.6-0.4l1.1-1.3C13.7,15.4,13.7,15.8,13.7,15.9z M13.4,8.3  c-0.7,0-1.2-0.5-1.2-1.2s0.5-1.2,1.2-1.2s1.2,0.5,1.2,1.2C14.7,7.8,14.1,8.3,13.4,8.3z"
   id="path1"
   style="fill:#1a1a1a;stroke:#1a1a1a;stroke-width:0;stroke-dasharray:none" />
<rect
   style="opacity:1;fill:#ffffff;stroke:#1a1a1a;stroke-width:0;stroke-linejoin:round;stroke-dasharray:none;paint-order:stroke markers fill"
   id="rect1"
   width="3.1484313"
   height="16.609068"
   x="19.551569"
   y="3.6954663"
   rx="0"
   ry="0" /><rect
   style="fill:#ffffff;stroke:#1a1a1a;stroke-width:0;stroke-linejoin:round;stroke-dasharray:none;paint-order:stroke markers fill"
   id="rect1-5"
   width="3.1484313"
   height="16.609068"
   x="1.3137516"
   y="4.2413487"
   rx="0"
   ry="0" /></svg>
