<?xml version="1.0" encoding="UTF-8" standalone="no"?>
<!-- Created with Inkscape (http://www.inkscape.org/) -->

<svg
   width="32.029457mm"
   height="41.412178mm"
   viewBox="0 0 32.029457 41.412178"
   version="1.1"
   id="svg1"
   inkscape:version="1.3 (0e150ed6c4, 2023-07-21)"
   sodipodi:docname="RNN.svg"
   inkscape:export-filename="RNN_usualNN.png"
   inkscape:export-xdpi="300.008"
   inkscape:export-ydpi="300.008"
   xmlns:inkscape="http://www.inkscape.org/namespaces/inkscape"
   xmlns:sodipodi="http://sodipodi.sourceforge.net/DTD/sodipodi-0.dtd"
   xmlns="http://www.w3.org/2000/svg"
   xmlns:svg="http://www.w3.org/2000/svg">
  <sodipodi:namedview
     id="namedview1"
     pagecolor="#ffffff"
     bordercolor="#666666"
     borderopacity="1.0"
     inkscape:showpageshadow="2"
     inkscape:pageopacity="0.0"
     inkscape:pagecheckerboard="0"
     inkscape:deskcolor="#d1d1d1"
     inkscape:document-units="mm"
     inkscape:zoom="2.6813957"
     inkscape:cx="258.07456"
     inkscape:cy="720.89324"
     inkscape:window-width="2500"
     inkscape:window-height="1418"
     inkscape:window-x="60"
     inkscape:window-y="0"
     inkscape:window-maximized="1"
     inkscape:current-layer="layer1" />
  <defs
     id="defs1">
    <marker
       style="overflow:visible"
       id="ArrowWide-2-7-9-8"
       refX="0"
       refY="0"
       orient="auto-start-reverse"
       inkscape:stockid="Wide arrow"
       markerWidth="0.60000002"
       markerHeight="0.60000002"
       viewBox="0 0 1 1"
       inkscape:isstock="true"
       inkscape:collect="always"
       preserveAspectRatio="xMidYMid">
      <path
         style="fill:none;stroke:context-stroke;stroke-width:1;stroke-linecap:butt"
         d="M 3,-3 0,0 3,3"
         transform="rotate(180,0.125,0)"
         sodipodi:nodetypes="ccc"
         id="path14-8-5-3-9" />
    </marker>
    <marker
       style="overflow:visible"
       id="ArrowWide-2-7-9-8-3"
       refX="0"
       refY="0"
       orient="auto-start-reverse"
       inkscape:stockid="Wide arrow"
       markerWidth="0.60000002"
       markerHeight="0.60000002"
       viewBox="0 0 1 1"
       inkscape:isstock="true"
       inkscape:collect="always"
       preserveAspectRatio="xMidYMid">
      <path
         style="fill:none;stroke:context-stroke;stroke-width:1;stroke-linecap:butt"
         d="M 3,-3 0,0 3,3"
         transform="rotate(180,0.125,0)"
         sodipodi:nodetypes="ccc"
         id="path14-8-5-3-9-6" />
    </marker>
  </defs>
  <g
     inkscape:label="Layer 1"
     inkscape:groupmode="layer"
     id="layer1"
     transform="translate(-74.310129,-126.62812)">
    <ellipse
       style="fill:none;fill-opacity:1;stroke:#0066ff;stroke-width:0.265;stroke-linecap:round;stroke-linejoin:round;stroke-dasharray:none;stroke-opacity:1"
       id="path10-3-2-2-19"
       cx="-31.776527"
       cy="171.90105"
       rx="1.9702977"
       ry="1.377753"
       transform="rotate(-45)"
       inkscape:export-filename="Many2OneRNN.svg"
       inkscape:export-xdpi="300.008"
       inkscape:export-ydpi="300.008" />
    <ellipse
       style="fill:none;fill-opacity:1;stroke:#0066ff;stroke-width:0.265;stroke-linecap:round;stroke-linejoin:round;stroke-dasharray:none;stroke-opacity:1"
       id="path10-3-2-2-1"
       cx="-39.887207"
       cy="163.79037"
       rx="1.9702977"
       ry="1.377753"
       transform="rotate(-45)" />
    <path
       style="fill:#ffcc00;stroke:none;stroke-width:1.32292;stroke-linecap:round;stroke-linejoin:round"
       id="path1-6-5-0"
       sodipodi:type="arc"
       sodipodi:cx="-163.62808"
       sodipodi:cy="78.986916"
       sodipodi:rx="4.4122019"
       sodipodi:ry="4.4122019"
       sodipodi:start="1.5708036"
       sodipodi:end="1.5706309"
       sodipodi:open="true"
       sodipodi:arc-type="arc"
       d="m -163.62811,83.399117 a 4.4122019,4.4122019 0 0 1 -4.41217,-4.412043 4.4122019,4.4122019 0 0 1 4.41185,-4.41236 4.4122019,4.4122019 0 0 1 4.41255,4.411662 4.4122019,4.4122019 0 0 1 -4.41147,4.412741"
       inkscape:export-filename="Many2OneRNN.svg"
       inkscape:export-xdpi="300.008"
       inkscape:export-ydpi="300.008"
       transform="rotate(-90)" />
    <path
       style="fill:#0066ff;stroke:none;stroke-width:1.32292;stroke-linecap:round;stroke-linejoin:round"
       id="path1-7-1-62-6"
       sodipodi:type="arc"
       sodipodi:cx="-146.86618"
       sodipodi:cy="78.986916"
       sodipodi:rx="4.4122019"
       sodipodi:ry="4.4122019"
       sodipodi:start="1.5708036"
       sodipodi:end="1.5706309"
       sodipodi:open="true"
       sodipodi:arc-type="arc"
       d="m -146.86621,83.399117 a 4.4122019,4.4122019 0 0 1 -4.41217,-4.412043 4.4122019,4.4122019 0 0 1 4.41185,-4.41236 4.4122019,4.4122019 0 0 1 4.41255,4.411662 4.4122019,4.4122019 0 0 1 -4.41147,4.412741"
       transform="rotate(-90)" />
    <path
       style="fill:none;fill-rule:evenodd;stroke:#666666;stroke-width:0.565;stroke-linecap:butt;stroke-linejoin:miter;stroke-dasharray:none;stroke-opacity:1;marker-end:url(#ArrowWide-2-7-9-8)"
       d="m 78.986904,159.21589 c 0,-7.9375 0,-7.9375 0,-7.9375"
       id="path2-2-1-6" />
    <path
       style="fill:none;fill-rule:evenodd;stroke:#666666;stroke-width:0.565001;stroke-linecap:butt;stroke-linejoin:miter;stroke-dasharray:none;stroke-opacity:1;marker-end:url(#ArrowWide-2-7-9-8)"
       d="m 83.399118,146.86621 c 2.528629,0 2.528629,0 2.528629,0"
       id="path12-9-2-1" />
    <path
       style="fill:none;fill-rule:evenodd;stroke:#666666;stroke-width:0.565001;stroke-linecap:butt;stroke-linejoin:miter;stroke-dasharray:none;stroke-opacity:1;marker-end:url(#ArrowWide-2-7-9-8-3)"
       d="m 94.869355,146.86472 c 2.528629,0 2.528629,0 2.528629,0"
       id="path12-9-2-1-0" />
    <path
       style="fill:#ffcc00;stroke:none;stroke-width:1.32292;stroke-linecap:round;stroke-linejoin:round"
       id="path1-6-5-0-2"
       sodipodi:type="arc"
       sodipodi:cx="-163.62735"
       sodipodi:cy="90.457153"
       sodipodi:rx="4.4122019"
       sodipodi:ry="4.4122019"
       sodipodi:start="1.5708036"
       sodipodi:end="1.5706309"
       sodipodi:open="true"
       sodipodi:arc-type="arc"
       d="m -163.62738,94.869355 a 4.4122019,4.4122019 0 0 1 -4.41217,-4.412043 4.4122019,4.4122019 0 0 1 4.41185,-4.412361 4.4122019,4.4122019 0 0 1 4.41255,4.411663 4.4122019,4.4122019 0 0 1 -4.41147,4.412741"
       inkscape:export-filename="RNN_usualNNsimp.png"
       inkscape:export-xdpi="300.008"
       inkscape:export-ydpi="300.008"
       transform="rotate(-90)" />
    <path
       style="fill:#0066ff;stroke:none;stroke-width:1.32292;stroke-linecap:round;stroke-linejoin:round"
       id="path1-7-1-62-6-3"
       sodipodi:type="arc"
       sodipodi:cx="-146.86618"
       sodipodi:cy="90.457153"
       sodipodi:rx="4.4122019"
       sodipodi:ry="4.4122019"
       sodipodi:start="1.5708036"
       sodipodi:end="1.5706309"
       sodipodi:open="true"
       sodipodi:arc-type="arc"
       d="m -146.86621,94.869355 a 4.4122019,4.4122019 0 0 1 -4.41217,-4.412043 4.4122019,4.4122019 0 0 1 4.41185,-4.412361 4.4122019,4.4122019 0 0 1 4.41255,4.411663 4.4122019,4.4122019 0 0 1 -4.41147,4.412741"
       transform="rotate(-90)" />
    <path
       style="fill:none;fill-rule:evenodd;stroke:#666666;stroke-width:0.565;stroke-linecap:butt;stroke-linejoin:miter;stroke-dasharray:none;stroke-opacity:1;marker-end:url(#ArrowWide-2-7-9-8)"
       d="m 90.457146,159.21517 c 0,-7.9375 0,-7.9375 0,-7.9375"
       id="path2-2-1-6-5" />
    <path
       style="fill:#ffcc00;stroke:none;stroke-width:1.32292;stroke-linecap:round;stroke-linejoin:round"
       id="path1-6-5-0-3"
       sodipodi:type="arc"
       sodipodi:cx="-163.6266"
       sodipodi:cy="101.92738"
       sodipodi:rx="4.4122019"
       sodipodi:ry="4.4122019"
       sodipodi:start="1.5708036"
       sodipodi:end="1.5706309"
       sodipodi:open="true"
       sodipodi:arc-type="arc"
       d="m -163.62663,106.33959 a 4.4122019,4.4122019 0 0 1 -4.41217,-4.41205 4.4122019,4.4122019 0 0 1 4.41185,-4.412358 4.4122019,4.4122019 0 0 1 4.41255,4.411658 4.4122019,4.4122019 0 0 1 -4.41147,4.41275"
       inkscape:export-filename="RNN_usualNNsimp.png"
       inkscape:export-xdpi="300.008"
       inkscape:export-ydpi="300.008"
       transform="rotate(-90)" />
    <path
       style="fill:#0066ff;stroke:none;stroke-width:1.32292;stroke-linecap:round;stroke-linejoin:round"
       id="path1-7-1-62-6-6"
       sodipodi:type="arc"
       sodipodi:cx="-146.86618"
       sodipodi:cy="101.92738"
       sodipodi:rx="4.4122019"
       sodipodi:ry="4.4122019"
       sodipodi:start="1.5708036"
       sodipodi:end="1.5706309"
       sodipodi:open="true"
       sodipodi:arc-type="arc"
       d="m -146.86621,106.33959 a 4.4122019,4.4122019 0 0 1 -4.41217,-4.41205 4.4122019,4.4122019 0 0 1 4.41185,-4.412358 4.4122019,4.4122019 0 0 1 4.41255,4.411658 4.4122019,4.4122019 0 0 1 -4.41147,4.41275"
       transform="rotate(-90)" />
    <path
       style="fill:#ff6600;stroke:none;stroke-width:1.32292;stroke-linecap:round;stroke-linejoin:round"
       id="path1-7-1-6-9-2-1"
       sodipodi:type="arc"
       sodipodi:cx="-131.04031"
       sodipodi:cy="101.92737"
       sodipodi:rx="4.4122019"
       sodipodi:ry="4.4122019"
       sodipodi:start="1.5708036"
       sodipodi:end="1.5706309"
       sodipodi:open="true"
       sodipodi:arc-type="arc"
       d="m -131.04035,106.33957 a 4.4122019,4.4122019 0 0 1 -4.41217,-4.41204 4.4122019,4.4122019 0 0 1 4.41186,-4.412364 4.4122019,4.4122019 0 0 1 4.41255,4.411664 4.4122019,4.4122019 0 0 1 -4.41147,4.41274"
       transform="rotate(-90)" />
    <path
       style="fill:none;fill-rule:evenodd;stroke:#666666;stroke-width:0.565;stroke-linecap:butt;stroke-linejoin:miter;stroke-dasharray:none;stroke-opacity:1;marker-end:url(#ArrowWide-2-7-9-8)"
       d="m 101.92735,159.21442 c 0,-7.9375 0,-7.9375 0,-7.9375"
       id="path2-2-1-6-2" />
    <path
       style="fill:none;fill-rule:evenodd;stroke:#666666;stroke-width:0.565;stroke-linecap:butt;stroke-linejoin:miter;stroke-dasharray:none;stroke-opacity:1;marker-end:url(#ArrowWide-2-7-9-8)"
       d="m 101.92735,142.45251 c 0,-7 0,-7 0,-7"
       id="path12-9-2-1-93" />
    <ellipse
       style="fill:none;fill-opacity:1;stroke:#0066ff;stroke-width:0.265;stroke-linecap:round;stroke-linejoin:round;stroke-dasharray:none;stroke-opacity:1"
       id="path10-3-2-2-9"
       cx="-47.997887"
       cy="155.67969"
       rx="1.9702977"
       ry="1.377753"
       transform="rotate(-45)" />
    <path
       style="fill:none;stroke:#000000;stroke-width:0.323;stroke-linecap:round;stroke-linejoin:round;stroke-dasharray:none"
       id="path1-7-1-62-5-7"
       sodipodi:type="arc"
       sodipodi:cx="-146.86618"
       sodipodi:cy="78.986916"
       sodipodi:rx="3"
       sodipodi:ry="3"
       sodipodi:start="1.5708036"
       sodipodi:end="1.5706309"
       sodipodi:open="true"
       sodipodi:arc-type="arc"
       d="m -146.8662,81.986916 a 3,3 0 0 1 -2.99998,-2.999893 3,3 0 0 1 2.99976,-3.000107 3,3 0 0 1 3.00024,2.999633 3,3 0 0 1 -2.9995,3.000367"
       transform="rotate(-90)" />
    <path
       style="fill:none;stroke:#000000;stroke-width:0.323;stroke-linecap:round;stroke-linejoin:round;stroke-dasharray:none"
       id="path1-7-1-62-5-7-0"
       sodipodi:type="arc"
       sodipodi:cx="-146.86618"
       sodipodi:cy="90.457153"
       sodipodi:rx="3"
       sodipodi:ry="3"
       sodipodi:start="1.5708036"
       sodipodi:end="1.5706309"
       sodipodi:open="true"
       sodipodi:arc-type="arc"
       d="m -146.8662,93.457153 a 3,3 0 0 1 -2.99998,-2.999892 3,3 0 0 1 2.99976,-3.000108 3,3 0 0 1 3.00024,2.999634 3,3 0 0 1 -2.9995,3.000366"
       transform="rotate(-90)" />
    <path
       style="fill:none;stroke:#000000;stroke-width:0.323;stroke-linecap:round;stroke-linejoin:round;stroke-dasharray:none"
       id="path1-7-1-62-5-7-8"
       sodipodi:type="arc"
       sodipodi:cx="-146.86618"
       sodipodi:cy="101.92738"
       sodipodi:rx="3"
       sodipodi:ry="3"
       sodipodi:start="1.5708036"
       sodipodi:end="1.5706309"
       sodipodi:open="true"
       sodipodi:arc-type="arc"
       d="m -146.8662,104.92738 a 3,3 0 0 1 -2.99998,-2.99989 3,3 0 0 1 2.99976,-3.000107 3,3 0 0 1 3.00024,2.999637 3,3 0 0 1 -2.9995,3.00036"
       transform="rotate(-90)" />
  </g>
</svg>
