<?xml version="1.0" encoding="UTF-8" standalone="no"?>
<!-- Created with Inkscape (http://www.inkscape.org/) -->

<svg
   width="9.0889883mm"
   height="41.410717mm"
   viewBox="0 0 9.0889883 41.410717"
   version="1.1"
   id="svg1"
   inkscape:version="1.3 (0e150ed6c4, 2023-07-21)"
   sodipodi:docname="RNN.svg"
   inkscape:export-filename="RNN_usualNN.png"
   inkscape:export-xdpi="300.008"
   inkscape:export-ydpi="300.008"
   xmlns:inkscape="http://www.inkscape.org/namespaces/inkscape"
   xmlns:sodipodi="http://sodipodi.sourceforge.net/DTD/sodipodi-0.dtd"
   xmlns="http://www.w3.org/2000/svg"
   xmlns:svg="http://www.w3.org/2000/svg">
  <sodipodi:namedview
     id="namedview1"
     pagecolor="#ffffff"
     bordercolor="#666666"
     borderopacity="1.0"
     inkscape:showpageshadow="2"
     inkscape:pageopacity="0.0"
     inkscape:pagecheckerboard="0"
     inkscape:deskcolor="#d1d1d1"
     inkscape:document-units="mm"
     inkscape:zoom="2.6813957"
     inkscape:cx="258.07456"
     inkscape:cy="720.89324"
     inkscape:window-width="2500"
     inkscape:window-height="1418"
     inkscape:window-x="60"
     inkscape:window-y="0"
     inkscape:window-maximized="1"
     inkscape:current-layer="layer1" />
  <defs
     id="defs1">
    <marker
       style="overflow:visible"
       id="ArrowWide-2-7-9-8"
       refX="0"
       refY="0"
       orient="auto-start-reverse"
       inkscape:stockid="Wide arrow"
       markerWidth="0.60000002"
       markerHeight="0.60000002"
       viewBox="0 0 1 1"
       inkscape:isstock="true"
       inkscape:collect="always"
       preserveAspectRatio="xMidYMid">
      <path
         style="fill:none;stroke:context-stroke;stroke-width:1;stroke-linecap:butt"
         d="M 3,-3 0,0 3,3"
         transform="rotate(180,0.125,0)"
         sodipodi:nodetypes="ccc"
         id="path14-8-5-3-9" />
    </marker>
  </defs>
  <g
     inkscape:label="Layer 1"
     inkscape:groupmode="layer"
     id="layer1"
     transform="translate(-39.027383,-126.62957)">
    <ellipse
       style="fill:none;fill-opacity:1;stroke:#0066ff;stroke-width:0.265;stroke-linecap:round;stroke-linejoin:round;stroke-dasharray:none;stroke-opacity:1"
       id="path10-3-2-2"
       cx="-72.946556"
       cy="130.73102"
       rx="1.9702977"
       ry="1.377753"
       transform="rotate(-45)" />
    <path
       style="fill:#ffcc00;stroke:none;stroke-width:1.32292;stroke-linecap:round;stroke-linejoin:round"
       id="path1-6-5"
       sodipodi:type="arc"
       sodipodi:cx="-163.62808"
       sodipodi:cy="43.704166"
       sodipodi:rx="4.4122019"
       sodipodi:ry="4.4122019"
       sodipodi:start="1.5708036"
       sodipodi:end="1.5706309"
       sodipodi:open="true"
       sodipodi:arc-type="arc"
       d="m -163.62811,48.116368 a 4.4122019,4.4122019 0 0 1 -4.41217,-4.412043 4.4122019,4.4122019 0 0 1 4.41185,-4.41236 4.4122019,4.4122019 0 0 1 4.41255,4.411662 4.4122019,4.4122019 0 0 1 -4.41147,4.412741"
       inkscape:export-filename="One2OneRNN.svg"
       inkscape:export-xdpi="300.008"
       inkscape:export-ydpi="300.008"
       transform="rotate(-90)" />
    <path
       style="fill:#0066ff;stroke:none;stroke-width:1.32292;stroke-linecap:round;stroke-linejoin:round"
       id="path1-7-1-62"
       sodipodi:type="arc"
       sodipodi:cx="-146.86618"
       sodipodi:cy="43.704166"
       sodipodi:rx="4.4122019"
       sodipodi:ry="4.4122019"
       sodipodi:start="1.5708036"
       sodipodi:end="1.5706309"
       sodipodi:open="true"
       sodipodi:arc-type="arc"
       d="m -146.86621,48.116368 a 4.4122019,4.4122019 0 0 1 -4.41217,-4.412043 4.4122019,4.4122019 0 0 1 4.41185,-4.41236 4.4122019,4.4122019 0 0 1 4.41255,4.411662 4.4122019,4.4122019 0 0 1 -4.41147,4.412741"
       transform="rotate(-90)" />
    <path
       style="fill:none;stroke:#000000;stroke-width:0.323;stroke-linecap:round;stroke-linejoin:round;stroke-dasharray:none"
       id="path1-7-1-62-5"
       sodipodi:type="arc"
       sodipodi:cx="-146.86618"
       sodipodi:cy="43.704166"
       sodipodi:rx="3"
       sodipodi:ry="3"
       sodipodi:start="1.5708036"
       sodipodi:end="1.5706309"
       sodipodi:open="true"
       sodipodi:arc-type="arc"
       d="m -146.8662,46.704166 a 3,3 0 0 1 -2.99998,-2.999892 3,3 0 0 1 2.99976,-3.000108 3,3 0 0 1 3.00024,2.999634 3,3 0 0 1 -2.9995,3.000366"
       transform="rotate(-90)" />
    <path
       style="fill:#ff6600;stroke:none;stroke-width:1.32292;stroke-linecap:round;stroke-linejoin:round"
       id="path1-7-1-6-9"
       sodipodi:type="arc"
       sodipodi:cx="-131.04178"
       sodipodi:cy="43.704151"
       sodipodi:rx="4.4122019"
       sodipodi:ry="4.4122019"
       sodipodi:start="1.5708036"
       sodipodi:end="1.5706309"
       sodipodi:open="true"
       sodipodi:arc-type="arc"
       d="m -131.04181,48.116353 a 4.4122019,4.4122019 0 0 1 -4.41217,-4.412043 4.4122019,4.4122019 0 0 1 4.41185,-4.412361 4.4122019,4.4122019 0 0 1 4.41255,4.411663 4.4122019,4.4122019 0 0 1 -4.41147,4.412741"
       transform="rotate(-90)" />
    <path
       style="fill:none;fill-rule:evenodd;stroke:#666666;stroke-width:0.565;stroke-linecap:butt;stroke-linejoin:miter;stroke-dasharray:none;stroke-opacity:1;marker-end:url(#ArrowWide-2-7-9-8)"
       d="m 43.704164,159.21589 c 0,-7.9375 0,-7.9375 0,-7.9375"
       id="path2-2-1" />
    <path
       style="fill:none;fill-rule:evenodd;stroke:#666666;stroke-width:0.565;stroke-linecap:butt;stroke-linejoin:miter;stroke-dasharray:none;stroke-opacity:1;marker-end:url(#ArrowWide-2-7-9-8)"
       d="m 43.704164,142.45398 c 0,-7 0,-7 0,-7"
       id="path12-9-2" />
  </g>
</svg>
