<?xml version="1.0" encoding="UTF-8" standalone="no"?>
<!-- Created with Inkscape (http://www.inkscape.org/) -->

<svg
   width="41.410717mm"
   height="9.0889883mm"
   viewBox="0 0 41.410717 9.0889883"
   version="1.1"
   id="svg1"
   inkscape:version="1.3 (0e150ed6c4, 2023-07-21)"
   sodipodi:docname="RNN.svg"
   inkscape:export-filename="RNN_usualNN.png"
   inkscape:export-xdpi="300.008"
   inkscape:export-ydpi="300.008"
   xmlns:inkscape="http://www.inkscape.org/namespaces/inkscape"
   xmlns:sodipodi="http://sodipodi.sourceforge.net/DTD/sodipodi-0.dtd"
   xmlns="http://www.w3.org/2000/svg"
   xmlns:svg="http://www.w3.org/2000/svg">
  <sodipodi:namedview
     id="namedview1"
     pagecolor="#ffffff"
     bordercolor="#666666"
     borderopacity="1.0"
     inkscape:showpageshadow="2"
     inkscape:pageopacity="0.0"
     inkscape:pagecheckerboard="0"
     inkscape:deskcolor="#d1d1d1"
     inkscape:document-units="mm"
     inkscape:zoom="2.6813957"
     inkscape:cx="258.07456"
     inkscape:cy="720.89324"
     inkscape:window-width="2500"
     inkscape:window-height="1418"
     inkscape:window-x="60"
     inkscape:window-y="0"
     inkscape:window-maximized="1"
     inkscape:current-layer="layer1" />
  <defs
     id="defs1">
    <marker
       style="overflow:visible"
       id="ArrowWide-2"
       refX="0"
       refY="0"
       orient="auto-start-reverse"
       inkscape:stockid="Wide arrow"
       markerWidth="0.60000002"
       markerHeight="0.60000002"
       viewBox="0 0 1 1"
       inkscape:isstock="true"
       inkscape:collect="always"
       preserveAspectRatio="xMidYMid">
      <path
         style="fill:none;stroke:context-stroke;stroke-width:1;stroke-linecap:butt"
         d="M 3,-3 0,0 3,3"
         transform="rotate(180,0.125,0)"
         sodipodi:nodetypes="ccc"
         id="path14-8" />
    </marker>
  </defs>
  <g
     inkscape:label="Layer 1"
     inkscape:groupmode="layer"
     id="layer1"
     transform="translate(-42.049787,-83.067159)">
    <path
       style="fill:#ffcc00;stroke:none;stroke-width:1.32292;stroke-linecap:round;stroke-linejoin:round"
       id="path1-6"
       sodipodi:type="arc"
       sodipodi:cx="46.46199"
       sodipodi:cy="87.743942"
       sodipodi:rx="4.4122019"
       sodipodi:ry="4.4122019"
       sodipodi:start="1.5708036"
       sodipodi:end="1.5706309"
       sodipodi:open="true"
       sodipodi:arc-type="arc"
       d="m 46.461958,92.156144 a 4.4122019,4.4122019 0 0 1 -4.41217,-4.412043 4.4122019,4.4122019 0 0 1 4.411853,-4.412361 4.4122019,4.4122019 0 0 1 4.412551,4.411663 4.4122019,4.4122019 0 0 1 -4.411472,4.412741"
       inkscape:export-filename="RNN_usualNNsimp.svg"
       inkscape:export-xdpi="300.008"
       inkscape:export-ydpi="300.008" />
    <path
       style="fill:#0066ff;stroke:none;stroke-width:1.32292;stroke-linecap:round;stroke-linejoin:round"
       id="path1-7-1"
       sodipodi:type="arc"
       sodipodi:cx="63.2239"
       sodipodi:cy="87.743942"
       sodipodi:rx="4.4122019"
       sodipodi:ry="4.4122019"
       sodipodi:start="1.5708036"
       sodipodi:end="1.5706309"
       sodipodi:open="true"
       sodipodi:arc-type="arc"
       d="m 63.223868,92.156144 a 4.4122019,4.4122019 0 0 1 -4.41217,-4.412043 4.4122019,4.4122019 0 0 1 4.411853,-4.412361 4.4122019,4.4122019 0 0 1 4.412551,4.411663 4.4122019,4.4122019 0 0 1 -4.411472,4.412741" />
    <path
       style="fill:#ff6600;stroke:none;stroke-width:1.32292;stroke-linecap:round;stroke-linejoin:round"
       id="path1-7-1-6"
       sodipodi:type="arc"
       sodipodi:cx="79.048302"
       sodipodi:cy="87.743935"
       sodipodi:rx="4.4122019"
       sodipodi:ry="4.4122019"
       sodipodi:start="1.5708036"
       sodipodi:end="1.5706309"
       sodipodi:open="true"
       sodipodi:arc-type="arc"
       d="m 79.04827,92.156137 a 4.4122019,4.4122019 0 0 1 -4.41217,-4.412044 4.4122019,4.4122019 0 0 1 4.411853,-4.41236 4.4122019,4.4122019 0 0 1 4.412551,4.411662 4.4122019,4.4122019 0 0 1 -4.411472,4.412741" />
    <path
       style="fill:none;fill-rule:evenodd;stroke:#666666;stroke-width:0.565;stroke-linecap:butt;stroke-linejoin:miter;stroke-dasharray:none;stroke-opacity:1;marker-end:url(#ArrowWide-2)"
       d="m 50.874193,87.743938 c 7.937497,0 7.937497,0 7.937497,0"
       id="path2-2" />
    <path
       style="fill:none;fill-rule:evenodd;stroke:#666666;stroke-width:0.565;stroke-linecap:butt;stroke-linejoin:miter;stroke-dasharray:none;stroke-opacity:1;marker-end:url(#ArrowWide-2)"
       d="m 67.6361,87.743938 c 7,0 7,0 7,0"
       id="path12-9" />
    <ellipse
       style="fill:none;fill-opacity:1;stroke:#0066ff;stroke-width:0.265;stroke-linecap:round;stroke-linejoin:round;stroke-dasharray:none;stroke-opacity:1"
       id="path10-3-2-7"
       cx="106.75039"
       cy="13.315722"
       rx="1.9702977"
       ry="1.377753"
       transform="rotate(45)" />
  </g>
</svg>
