<?xml version="1.0" encoding="UTF-8" standalone="no"?>
<!-- Created with Inkscape (http://www.inkscape.org/) -->

<svg
   width="90.772224mm"
   height="45.404278mm"
   viewBox="0 0 90.772225 45.404278"
   version="1.1"
   id="svg5"
   inkscape:version="1.2.2 (b0a8486541, 2022-12-01)"
   sodipodi:docname="logoPPCL.svg"
   xml:space="preserve"
   inkscape:export-filename="logoPytChem.png"
   inkscape:export-xdpi="300.008"
   inkscape:export-ydpi="300.008"
   xmlns:inkscape="http://www.inkscape.org/namespaces/inkscape"
   xmlns:sodipodi="http://sodipodi.sourceforge.net/DTD/sodipodi-0.dtd"
   xmlns:xlink="http://www.w3.org/1999/xlink"
   xmlns="http://www.w3.org/2000/svg"
   xmlns:svg="http://www.w3.org/2000/svg"><sodipodi:namedview
     id="namedview7"
     pagecolor="#ffffff"
     bordercolor="#666666"
     borderopacity="1.0"
     inkscape:showpageshadow="2"
     inkscape:pageopacity="0.0"
     inkscape:pagecheckerboard="0"
     inkscape:deskcolor="#d1d1d1"
     inkscape:document-units="mm"
     showgrid="false"
     inkscape:zoom="2.5877449"
     inkscape:cx="146.45957"
     inkscape:cy="106.84979"
     inkscape:window-width="1860"
     inkscape:window-height="1080"
     inkscape:window-x="60"
     inkscape:window-y="93"
     inkscape:window-maximized="0"
     inkscape:current-layer="layer1" /><defs
     id="defs2"><linearGradient
       inkscape:collect="always"
       xlink:href="#linearGradient4671"
       id="linearGradient1475"
       gradientUnits="userSpaceOnUse"
       gradientTransform="matrix(0.14646846,0,0,0.14788251,40.93286,118.27791)"
       x1="150.96111"
       y1="192.35176"
       x2="112.03144"
       y2="137.27299" /><linearGradient
       id="linearGradient4671"><stop
         style="stop-color:#ffd43b;stop-opacity:1;"
         offset="0"
         id="stop4673" /><stop
         style="stop-color:#ffe873;stop-opacity:1"
         offset="1"
         id="stop4675" /></linearGradient><linearGradient
       inkscape:collect="always"
       xlink:href="#linearGradient4689"
       id="linearGradient1478"
       gradientUnits="userSpaceOnUse"
       gradientTransform="matrix(0.14646846,0,0,0.14788251,40.93286,118.27791)"
       x1="26.648937"
       y1="20.603781"
       x2="135.66525"
       y2="114.39767" /><linearGradient
       id="linearGradient4689"><stop
         style="stop-color:#5a9fd4;stop-opacity:1;"
         offset="0"
         id="stop4691" /><stop
         style="stop-color:#306998;stop-opacity:1;"
         offset="1"
         id="stop4693" /></linearGradient><filter
       style="color-interpolation-filters:sRGB"
       inkscape:label="Drop Shadow"
       id="filter399"
       x="-0.31734258"
       y="-0.31734258"
       width="1.7418956"
       height="1.7418956"><feFlood
         flood-opacity="0.443137"
         flood-color="rgb(0,0,0)"
         result="flood"
         id="feFlood389" /><feComposite
         in="flood"
         in2="SourceGraphic"
         operator="in"
         result="composite1"
         id="feComposite391" /><feGaussianBlur
         in="composite1"
         stdDeviation="0.2"
         result="blur"
         id="feGaussianBlur393" /><feOffset
         dx="0.5"
         dy="0.5"
         result="offset"
         id="feOffset395" /><feComposite
         in="SourceGraphic"
         in2="offset"
         operator="over"
         result="composite2"
         id="feComposite397" /></filter><filter
       style="color-interpolation-filters:sRGB"
       inkscape:label="Drop Shadow"
       id="filter399-3"
       x="-0.11030558"
       y="-0.26241279"
       width="1.2768935"
       height="1.6222985"><feFlood
         flood-opacity="0.443137"
         flood-color="rgb(0,0,0)"
         result="flood"
         id="feFlood389-6" /><feComposite
         in="flood"
         in2="SourceGraphic"
         operator="in"
         result="composite1"
         id="feComposite391-7" /><feGaussianBlur
         in="composite1"
         stdDeviation="0.2"
         result="blur"
         id="feGaussianBlur393-5" /><feOffset
         dx="0.5"
         dy="0.5"
         result="offset"
         id="feOffset395-3" /><feComposite
         in="SourceGraphic"
         in2="offset"
         operator="over"
         result="composite2"
         id="feComposite397-5" /></filter><filter
       style="color-interpolation-filters:sRGB"
       inkscape:label="Drop Shadow"
       id="filter399-2"
       x="-0.31734258"
       y="-0.31734258"
       width="1.7418956"
       height="1.7418956"><feFlood
         flood-opacity="0.443137"
         flood-color="rgb(0,0,0)"
         result="flood"
         id="feFlood389-9" /><feComposite
         in="flood"
         in2="SourceGraphic"
         operator="in"
         result="composite1"
         id="feComposite391-1" /><feGaussianBlur
         in="composite1"
         stdDeviation="0.2"
         result="blur"
         id="feGaussianBlur393-2" /><feOffset
         dx="0.5"
         dy="0.5"
         result="offset"
         id="feOffset395-7" /><feComposite
         in="SourceGraphic"
         in2="offset"
         operator="over"
         result="composite2"
         id="feComposite397-0" /></filter><filter
       style="color-interpolation-filters:sRGB"
       inkscape:label="Drop Shadow"
       id="filter1829"
       x="-0.017399143"
       y="-0.03519077"
       width="1.0324084"
       height="1.082392"><feFlood
         flood-opacity="0.443137"
         flood-color="rgb(0,0,0)"
         result="flood"
         id="feFlood1819" /><feComposite
         in="flood"
         in2="SourceGraphic"
         operator="in"
         result="composite1"
         id="feComposite1821" /><feGaussianBlur
         in="composite1"
         stdDeviation="0.2"
         result="blur"
         id="feGaussianBlur1823" /><feOffset
         dx="0.5"
         dy="0.5"
         result="offset"
         id="feOffset1825" /><feComposite
         in="SourceGraphic"
         in2="offset"
         operator="over"
         result="composite2"
         id="feComposite1827" /></filter></defs><g
     inkscape:label="Layer 1"
     inkscape:groupmode="layer"
     id="layer1"
     transform="translate(-40.565663,-115.05468)"><text
       xml:space="preserve"
       style="font-weight:bold;font-size:8.46667px;line-height:0px;font-family:Calibri;-inkscape-font-specification:'Calibri Bold';text-align:center;text-decoration-color:#000000;letter-spacing:1.5875px;word-spacing:1.05833px;text-anchor:middle;fill:#000000;stroke:#000000;stroke-width:0.264583px;stroke-linecap:butt;stroke-linejoin:miter;stroke-opacity:1;-inkscape-stroke:none;stop-color:#000000"
       x="104.01595"
       y="158.39502"
       id="text1469"
       inkscape:export-filename="/home/romuald/ENSEIGNEMENT/0-JupyterNotebooks/L2-CHIM2-ON1/Tutos-Vidéo/Pandas-Stats-Iris/svg/logoPytChem.png"
       inkscape:export-xdpi="300.008"
       inkscape:export-ydpi="300.008"><tspan
         sodipodi:role="line"
         id="tspan1467"
         style="font-style:normal;font-variant:normal;font-weight:300;font-stretch:normal;font-size:8.46667px;font-family:Cantarell;-inkscape-font-specification:'Cantarell Light';fill:#800000;stroke:none;stroke-width:0.264583px"
         x="104.8097"
         y="158.39502">[ P P C L ]</tspan></text><g
       id="g1454"
       style="filter:url(#filter1829)"><g
         id="g372"><g
           id="g328"><path
             sodipodi:type="star"
             style="fill:#ffffff;stroke:#800000;stroke-width:0.9484;stroke-linecap:round;stroke-linejoin:round;stroke-dasharray:none;stroke-opacity:1;stop-color:#000000"
             id="path1010-3"
             inkscape:flatsided="true"
             sodipodi:sides="6"
             sodipodi:cx="66.166733"
             sodipodi:cy="81.448463"
             sodipodi:r1="9.6068897"
             sodipodi:r2="8.3198109"
             sodipodi:arg1="1.5707963"
             sodipodi:arg2="2.0943951"
             inkscape:rounded="0"
             inkscape:randomized="0"
             d="m 66.166733,91.055353 -8.319811,-4.803444 0,-9.60689 8.319811,-4.803445 8.31981,4.803444 0,9.60689 z"
             transform="matrix(2.1168582,0,0,2.1008034,-80.404254,-34.394153)" /><g
             id="g3780"
             transform="translate(0.35375178,0.75688731)"><path
               style="fill:url(#linearGradient1478);fill-opacity:1;stroke-width:0.264583"
               d="m 59.135259,121.32508 c -1.193448,0.006 -2.333172,0.10741 -3.335993,0.28479 -2.954217,0.52191 -3.490568,1.6143 -3.490568,3.62889 v 2.66065 h 6.981154 v 0.88689 h -6.981154 -2.61998 c -2.028916,0 -3.805489,1.21949 -4.361173,3.5394 -0.640995,2.65913 -0.669425,4.31849 0,7.09506 0.496246,2.06676 1.681343,3.53939 3.71026,3.53939 h 2.400269 v -3.18952 c 0,-2.30424 1.993687,-4.33678 4.361192,-4.33678 h 6.973009 c 1.941047,0 3.490586,-1.5982 3.490586,-3.54754 v -6.64755 c 0,-1.89194 -1.59607,-3.31315 -3.490586,-3.62889 -1.199238,-0.19963 -2.443588,-0.29034 -3.637016,-0.28479 z m -3.775359,2.13991 c 0.721093,0 1.309972,0.5985 1.309972,1.3344 0,0.73328 -0.588879,1.32624 -1.309972,1.32624 -0.723708,0 -1.30999,-0.59296 -1.30999,-1.32624 0,-0.7359 0.586282,-1.3344 1.30999,-1.3344 z"
               id="path1948" /><path
               style="fill:url(#linearGradient1475);fill-opacity:1;stroke-width:0.264583"
               d="m 67.133467,128.7863 v 3.10001 c 0,2.40341 -2.037622,4.42629 -4.361192,4.42629 h -6.973009 c -1.91002,0 -3.490568,1.63472 -3.490568,3.54752 v 6.64757 c 0,1.89192 1.645161,3.00473 3.490568,3.54753 2.209848,0.64977 4.328969,0.76721 6.973009,0 1.757538,-0.50886 3.490586,-1.53295 3.490586,-3.54753 v -2.66066 h -6.973009 v -0.88688 h 6.973009 3.490567 c 2.028936,0 2.784979,-1.41521 3.490586,-3.53939 0.728865,-2.18682 0.697837,-4.2898 0,-7.09506 -0.501419,-2.01981 -1.459073,-3.5394 -3.490586,-3.5394 z m -3.921808,16.8345 c 0.72369,0 1.309972,0.59297 1.309972,1.32626 0,0.73589 -0.586282,1.33439 -1.309972,1.33439 -0.721112,0 -1.30999,-0.5985 -1.30999,-1.33439 0,-0.73329 0.588878,-1.32626 1.30999,-1.32626 z"
               id="path1950" /></g></g><path
           style="fill:#800000;stroke:#800000;stroke-width:2;stroke-linecap:round;stroke-linejoin:round;stroke-dasharray:none;stroke-opacity:1;stop-color:#000000"
           id="path1232-6-2"
           sodipodi:type="arc"
           sodipodi:cx="59.563259"
           sodipodi:cy="156.14709"
           sodipodi:rx="2.3318648"
           sodipodi:ry="2.3318648"
           sodipodi:start="1.5708036"
           sodipodi:end="1.5706309"
           sodipodi:open="true"
           sodipodi:arc-type="arc"
           d="m 59.563242,158.47896 a 2.3318648,2.3318648 0 0 1 -2.331848,-2.33178 2.3318648,2.3318648 0 0 1 2.331681,-2.33195 2.3318648,2.3318648 0 0 1 2.332049,2.33158 2.3318648,2.3318648 0 0 1 -2.331479,2.33215" /></g><path
         style="fill:none;fill-rule:evenodd;stroke:#000080;stroke-width:2;stroke-linecap:butt;stroke-linejoin:miter;stroke-dasharray:none;stroke-opacity:1"
         d="m 97.226294,126.60516 c 8.820586,-5.09257 8.884406,-5.12942 8.884406,-5.12942"
         id="path1178" /><path
         style="fill:none;fill-rule:evenodd;stroke:#000080;stroke-width:2;stroke-linecap:butt;stroke-linejoin:miter;stroke-dasharray:none;stroke-opacity:1"
         d="m 104.56928,121.47576 c 8.82059,5.09257 8.88441,5.12942 8.88441,5.12942"
         id="path1178-7" /><path
         style="fill:none;fill-rule:evenodd;stroke:#000080;stroke-width:2;stroke-linecap:butt;stroke-linejoin:miter;stroke-dasharray:none;stroke-opacity:1"
         d="m 114.95163,127.85624 c 0,10.18514 0,10.25884 0,10.25884"
         id="path1178-7-6" /><path
         sodipodi:type="star"
         style="fill:#37abc8;stroke:#000080;stroke-width:2;stroke-linecap:round;stroke-linejoin:round;stroke-dasharray:none;stroke-opacity:1;stop-color:#000000"
         id="path1010"
         inkscape:flatsided="true"
         sodipodi:sides="6"
         sodipodi:cx="66.166733"
         sodipodi:cy="81.448463"
         sodipodi:r1="9.6068897"
         sodipodi:r2="8.3198109"
         sodipodi:arg1="1.5707963"
         sodipodi:arg2="2.0943951"
         inkscape:rounded="0"
         inkscape:randomized="0"
         d="m 66.166733,91.055353 -8.319811,-4.803444 0,-9.60689 8.319811,-4.803445 8.31981,4.803444 0,9.60689 z"
         inkscape:transform-center-y="-1.0261224e-06"
         transform="translate(22.48842,50.100164)" /><path
         style="fill:#000080;stroke:#000080;stroke-width:2;stroke-linecap:round;stroke-linejoin:round;stroke-dasharray:none;stroke-opacity:1;stop-color:#000000"
         id="path1232"
         sodipodi:type="arc"
         sodipodi:cx="105.69636"
         sodipodi:cy="121.75806"
         sodipodi:rx="2.3318648"
         sodipodi:ry="2.3318648"
         sodipodi:start="1.5708036"
         sodipodi:end="1.5706309"
         sodipodi:open="true"
         sodipodi:arc-type="arc"
         d="m 105.69634,124.08992 a 2.3318648,2.3318648 0 0 1 -2.33185,-2.33178 2.3318648,2.3318648 0 0 1 2.33168,-2.33195 2.3318648,2.3318648 0 0 1 2.33205,2.33158 2.3318648,2.3318648 0 0 1 -2.33148,2.33215" /><path
         style="fill:#000080;stroke:#000080;stroke-width:2;stroke-linecap:round;stroke-linejoin:round;stroke-dasharray:none;stroke-opacity:1;stop-color:#000000"
         id="path1232-6"
         sodipodi:type="arc"
         sodipodi:cx="114.90437"
         sodipodi:cy="127.40096"
         sodipodi:rx="2.3318648"
         sodipodi:ry="2.3318648"
         sodipodi:start="1.5708036"
         sodipodi:end="1.5706309"
         sodipodi:open="true"
         sodipodi:arc-type="arc"
         d="m 114.90436,129.73283 a 2.3318648,2.3318648 0 0 1 -2.33185,-2.33178 2.3318648,2.3318648 0 0 1 2.33168,-2.33195 2.3318648,2.3318648 0 0 1 2.33205,2.33158 2.3318648,2.3318648 0 0 1 -2.33148,2.33215" /><path
         style="fill:#000080;stroke:#000080;stroke-width:2;stroke-linecap:round;stroke-linejoin:round;stroke-dasharray:none;stroke-opacity:1;stop-color:#000000"
         id="path1232-6-9"
         sodipodi:type="arc"
         sodipodi:cx="115.08533"
         sodipodi:cy="137.97037"
         sodipodi:rx="2.3318648"
         sodipodi:ry="2.3318648"
         sodipodi:start="1.5708036"
         sodipodi:end="1.5706309"
         sodipodi:open="true"
         sodipodi:arc-type="arc"
         d="m 115.08531,140.30223 a 2.3318648,2.3318648 0 0 1 -2.33185,-2.33178 2.3318648,2.3318648 0 0 1 2.33168,-2.33195 2.3318648,2.3318648 0 0 1 2.33205,2.33158 2.3318648,2.3318648 0 0 1 -2.33148,2.33215" /><g
         id="g1330"
         transform="translate(-0.22755432,-0.1083374)"
         style="stroke-width:0.6;stroke-dasharray:none"><path
           style="fill:none;stroke:#4d4d4d;stroke-width:0.6;stroke-linecap:round;stroke-linejoin:round;stroke-dasharray:none;stop-color:#000000"
           id="path535"
           sodipodi:type="arc"
           sodipodi:cx="115.31288"
           sodipodi:cy="138.0787"
           sodipodi:rx="12.245026"
           sodipodi:ry="3.9030483"
           sodipodi:start="1.5708036"
           sodipodi:end="1.5706309"
           sodipodi:open="true"
           sodipodi:arc-type="arc"
           d="m 115.31279,141.98175 a 12.245026,3.9030483 0 0 1 -12.24493,-3.90291 12.245026,3.9030483 0 0 1 12.24405,-3.90318 12.245026,3.9030483 0 0 1 12.246,3.90257 12.245026,3.9030483 0 0 1 -12.243,3.90352" /><path
           style="fill:none;stroke:#4d4d4d;stroke-width:0.6;stroke-linecap:round;stroke-linejoin:round;stroke-dasharray:none;stop-color:#000000"
           id="path535-3"
           sodipodi:type="arc"
           sodipodi:cx="-138.0787"
           sodipodi:cy="115.31288"
           sodipodi:rx="12.245026"
           sodipodi:ry="3.9030483"
           sodipodi:start="1.5708036"
           sodipodi:end="1.5706309"
           sodipodi:open="true"
           sodipodi:arc-type="arc"
           d="m -138.07879,119.21593 a 12.245026,3.9030483 0 0 1 -12.24494,-3.90291 12.245026,3.9030483 0 0 1 12.24406,-3.90319 12.245026,3.9030483 0 0 1 12.24599,3.90257 12.245026,3.9030483 0 0 1 -12.243,3.90353"
           transform="rotate(-90)" /><path
           style="fill:none;stroke:#4d4d4d;stroke-width:0.6;stroke-linecap:round;stroke-linejoin:round;stroke-dasharray:none;stop-color:#000000"
           id="path535-3-6"
           sodipodi:type="arc"
           sodipodi:cx="-16.097868"
           sodipodi:cy="179.17491"
           sodipodi:rx="12.245026"
           sodipodi:ry="3.9030483"
           sodipodi:start="1.5708036"
           sodipodi:end="1.5706309"
           sodipodi:open="true"
           sodipodi:arc-type="arc"
           d="m -16.097957,183.07796 a 12.245026,3.9030483 0 0 1 -12.244937,-3.90291 12.245026,3.9030483 0 0 1 12.244058,-3.90319 12.245026,3.9030483 0 0 1 12.2459936,3.90257 12.245026,3.9030483 0 0 1 -12.2429996,3.90353"
           transform="rotate(-45)" /><path
           style="fill:none;stroke:#4d4d4d;stroke-width:0.6;stroke-linecap:round;stroke-linejoin:round;stroke-dasharray:none;stop-color:#000000"
           id="path535-3-6-0"
           sodipodi:type="arc"
           sodipodi:cx="-179.17491"
           sodipodi:cy="-16.097866"
           sodipodi:rx="12.245026"
           sodipodi:ry="3.9030483"
           sodipodi:start="1.5708036"
           sodipodi:end="1.5706309"
           sodipodi:open="true"
           sodipodi:arc-type="arc"
           d="m -179.175,-12.194818 a 12.245026,3.9030483 0 0 1 -12.24494,-3.902908 12.245026,3.9030483 0 0 1 12.24406,-3.903188 12.245026,3.9030483 0 0 1 12.24599,3.902571 12.245026,3.9030483 0 0 1 -12.243,3.903525"
           transform="rotate(-135)" /></g></g></g></svg>
