<?xml version="1.0" encoding="UTF-8" standalone="no"?>
<!-- Created with Inkscape (http://www.inkscape.org/) -->

<svg
   width="210mm"
   height="297mm"
   viewBox="0 0 210 297"
   version="1.1"
   id="svg1"
   xml:space="preserve"
   sodipodi:docname="logo_pyPhysChem_5.svg"
   inkscape:version="1.3.2 (091e20ef0f, 2023-11-25)"
   inkscape:export-filename="Logo_pyPhysChem_5.png"
   inkscape:export-xdpi="300.008"
   inkscape:export-ydpi="300.008"
   xmlns:inkscape="http://www.inkscape.org/namespaces/inkscape"
   xmlns:sodipodi="http://sodipodi.sourceforge.net/DTD/sodipodi-0.dtd"
   xmlns="http://www.w3.org/2000/svg"
   xmlns:svg="http://www.w3.org/2000/svg"><sodipodi:namedview
     id="namedview1"
     pagecolor="#ffffff"
     bordercolor="#666666"
     borderopacity="1.0"
     inkscape:showpageshadow="2"
     inkscape:pageopacity="0.0"
     inkscape:pagecheckerboard="0"
     inkscape:deskcolor="#d1d1d1"
     inkscape:document-units="mm"
     inkscape:zoom="0.37274242"
     inkscape:cx="496.32129"
     inkscape:cy="1301.1666"
     inkscape:window-width="2544"
     inkscape:window-height="1344"
     inkscape:window-x="83"
     inkscape:window-y="58"
     inkscape:window-maximized="0"
     inkscape:current-layer="layer1" /><defs
     id="defs1" /><g
     inkscape:label="Layer 1"
     inkscape:groupmode="layer"
     id="layer1"><path
       style="fill:#262a28;stroke:none"
       d="m 74.412389,149.45188 c -3.064874,0.41272 -6.235556,1.5785 -8.945247,3.04748 -10.197205,5.52813 -12.852535,17.15115 -12.120914,27.83492 0.435153,6.35449 2.077127,13.41996 -1.038124,19.38137 -2.369831,4.53496 -6.732956,7.85516 -11.972846,8.08493 -1.856001,0.0814 -3.705663,0.01 -5.537534,-0.29728 -0.695216,-0.11654 -1.654528,-0.50002 -2.274273,0.0113 -2.085001,1.72036 3.322568,3.93992 4.404094,4.24994 11.503693,3.29756 25.185971,-4.8836 26.801887,-17.1605 0.987915,-7.50569 -2.058565,-16.07727 1.992927,-23.00207 2.303096,-3.93644 6.916685,-7.07227 11.458797,-7.72504 1.643932,-0.23625 3.656255,-0.0787 5.111241,0.79934 0.49309,0.29757 1.364491,0.85965 1.052421,1.55415 -0.774364,1.72334 -5.647739,0.73287 -7.228573,1.32489 1.967784,4.47381 8.217288,7.52281 12.139978,10.08345 13.539747,8.83845 31.989797,9.07652 45.791137,0.20395 7.68977,-4.94357 13.45157,-12.2226 17.18516,-20.51054 4.86597,-10.80161 2.25204,-24.15149 -4.60311,-33.43818 -3.42325,-4.63748 -8.37819,-7.31663 -10.44072,-12.99191 -2.81084,-7.73431 0.75828,-16.587802 9.14672,-18.529442 -1.7129,-4.12073 -1.23714,-9.32105 2.76894,-12.09297 1.67442,-1.15859 3.92472,-1.91407 5.96333,-1.96073 0.57375,-0.0131 1.78241,-0.14965 2.07526,0.51504 0.28385,0.64427 -0.54193,1.2612 -1.01364,1.5175 -1.51834,0.82495 -3.24611,0.92428 -4.6792,1.99556 -4.14821,3.1009 -3.37031,9.309 0.21298,12.5421 3.38346,3.052799 9.17248,5.276302 13.62774,6.019712 1.64208,0.274 6.36697,0.0193 4.6856,-2.572713 0.65219,0.12618 1.15236,0.35101 1.70369,0.73344 4.18608,2.903633 -0.66753,5.299723 -0.85176,8.850753 1.80247,-0.7023 3.48095,-2.27632 4.25964,-4.04666 h 0.21298 c 0.92211,1.94063 2.42815,3.84807 4.68561,4.04666 -0.59744,-3.36206 -3.19021,-7.40015 -5.53754,-9.797173 3.0916,-0.49246 2.02985,-3.967349 2.55579,-6.176479 l -2.98175,-0.21299 0.21298,6.176479 h -0.21298 c -0.82828,-1.592229 -3.94942,-4.308969 -5.75052,-4.636959 -2.1652,-0.39429 -4.62224,0.3738 -6.81542,0.37732 -3.09264,0.005 -5.72695,0.67427 -7.24139,-2.76876 2.43156,-0.55585 4.77332,-0.27601 7.24139,-0.44503 4.05492,-0.27769 7.93042,-0.67024 11.92699,-1.41627 1.46267,-0.27302 5.01848,0.10634 6.02677,-0.99983 1.46809,-1.61063 0.99599,-5.31131 -0.7221,-6.51666 -1.4055,-0.98606 -3.25664,-0.99596 -4.8787,-1.33213 -2.2116,-0.45835 -4.34418,-1.37019 -6.60245,-1.60688 -13.62294,-1.42785 -28.08992,-1.79905 -38.32838,8.90908 -3.82709,4.00265 -7.1952,9.888369 -7.24978,15.547692 -0.0109,1.13376 -0.23323,3.15284 0.45271,4.15348 0.6781,0.98932 0.95327,3.5253 1.4518,4.59861 1.33221,2.86817 1.69312,2.45377 3.46339,5.187 0.71705,1.10709 2.06046,2.63226 2.87834,3.70231 0.60132,0.78671 1.91962,2.78294 2.39844,3.58178 1.5278,2.54891 1.75766,2.56479 3.51651,6.91293 1.36858,3.38334 5.48898,13.93604 0.56177,22.55363 -4.72444,8.26295 -14.65663,12.00402 -23.45514,13.68657 -2.6611,0.50888 -4.85498,1.67971 -7.66736,1.0797 -5.610953,-1.19709 -11.324429,-5.97222 -16.186629,-8.8879 -2.985366,-1.79021 -5.925253,-3.66119 -8.945247,-5.39275 -1.965446,-1.12692 -4.123277,-2.40612 -4.685605,-4.74526 M 51.20723,183.52897 c -1.298834,-5.27212 -2.053935,-11.65096 -0.495426,-16.82558 0.70106,-2.32769 2.32115,-4.7074 2.769918,-7.02841 0.411911,-2.13038 0.0585,-4.64626 0.0585,-6.81543 V 139.2287 127.51468 c 0,-1.31088 -0.456761,-3.69737 0.218899,-4.85389 0.607533,-1.0399 2.399644,-1.65869 3.401796,-2.25964 2.918852,-1.75033 5.828529,-3.50445 8.732265,-5.27969 9.384328,-5.73724 18.88005,-11.32121 28.326619,-16.955583 2.682693,-1.600079 5.365746,-3.235559 8.093309,-4.758069 0.95942,-0.53554 2.29759,-1.66785 3.40772,-1.75021 1.1194,-0.0831 2.50503,1.22449 3.40771,1.79064 2.68743,1.68551 5.76465,4.533909 8.94525,5.100879 0.17202,-3.764299 3.24777,-6.184509 4.04666,-9.584189 -3.44349,-1.91714 -6.79973,-4.34652 -10.01016,-6.63253 -1.84038,-1.31045 -3.9835,-3.05855 -6.38946,-2.90631 -2.07976,0.13159 -4.04554,1.50435 -5.750513,2.5783 -2.659713,1.67531 -5.352086,3.32133 -8.093323,4.8603 -11.893795,6.67732 -23.19929,14.412482 -35.142041,20.990572 -3.037349,1.67297 -5.88874,3.67064 -8.945247,5.32389 -2.433871,1.31647 -4.870681,2.29413 -5.222662,5.39029 -0.573069,5.04092 0.111093,10.65731 0.111093,15.76067 v 34.07713 c 0,3.32542 -0.743279,53.68645 -0.630209,57.26873 0.274872,8.70849 0.444081,10.55685 3.173941,10.61993 6.491997,0.15002 5.562725,-6.63385 5.657818,-18.70578 M 163.65187,81.171898 c 3.40159,-0.68048 4.43334,4.99536 0.85193,5.59226 -3.51282,0.58546 -4.32222,-4.89803 -0.85193,-5.59226 m 11.08427,1.73211 c 1.75214,-0.30409 2.35086,2.77695 0.6258,3.11503 -1.64248,0.32191 -2.39051,-2.80875 -0.6258,-3.11503 m -38.55896,2.54987 c 1.99324,-0.10449 3.00504,2.29875 2.34084,3.93705 -0.76426,1.88508 -3.10375,2.60882 -4.68364,3.6373 -0.61854,0.40265 -1.33681,1.08491 -2.12982,1.03828 -1.69213,-0.0995 -2.21399,-1.92181 -1.56647,-3.1847 1.03695,-2.02242 3.51005,-5.29535 6.03909,-5.42793 m 3.83368,14.160189 c -1.19383,2.280903 -2.24933,5.967703 -1.27904,8.519283 1.8146,4.77189 8.90582,8.01272 12.99305,10.55856 1.50639,0.93829 5.30159,2.29588 6.01838,3.95184 0.43145,0.99673 0.1581,2.526 0.1581,3.59308 v 7.88034 27.47469 8.94524 c 6e-5,0.87814 0.44794,2.57095 -0.009,3.32456 -0.43186,0.71218 -1.64405,1.11215 -2.33376,1.53377 -1.89618,1.15915 -3.84488,2.2201 -5.75052,3.36285 -6.93979,4.16155 -14.01612,8.15707 -20.87224,12.44877 -5.60434,3.50811 -11.33795,6.86631 -17.03856,10.21476 -1.33974,0.78694 -4.60209,3.49947 -6.17648,3.14789 -3.16051,-0.70579 -6.814693,-3.94955 -9.584186,-5.62101 -5.635963,-3.40144 -11.347598,-6.79845 -16.825588,-10.4501 -3.773834,-2.51564 -8.105118,-5.94907 -12.352959,-7.52536 0.0022,3.27645 0.654626,6.51256 0.638783,9.79717 -0.0052,1.07093 -0.649813,2.97144 0.0061,3.91092 0.50034,0.71666 1.793104,1.0876 2.549867,1.46622 1.616,0.80852 3.176489,1.7224 4.685605,2.71684 7.087581,4.67036 14.530274,8.84096 21.724172,13.34917 2.359563,1.47867 6.513936,5.02896 9.371206,4.9382 1.86905,-0.0594 3.77901,-1.60006 5.32455,-2.52735 3.62239,-2.1734 7.28274,-4.27106 10.86209,-6.51206 9.91159,-6.20558 20.04579,-12.28543 30.24345,-18.01047 3.48367,-1.95575 6.83309,-4.15883 10.22314,-6.26932 1.65841,-1.03246 3.75729,-1.75096 5.02841,-3.29383 2.38358,-2.8932 1.36105,-8.20763 1.36105,-11.70547 v -29.81749 -15.33471 c 0,-2.22242 0.66662,-4.68263 -0.19819,-6.81543 -1.03227,-2.54578 -4.95041,-3.79031 -7.25618,-4.95134 -5.01158,-2.52351 -9.88192,-5.54164 -14.69576,-8.42397 -2.08677,-1.24948 -4.39355,-3.43917 -6.81543,-3.876243 m -12.13998,0.925223 c 4.00509,-0.42364 4.53635,6.63839 0,6.90647 -3.93703,0.23267 -3.87617,-6.49647 0,-6.90647 m 12.57519,22.84512 c 2.68839,-1.01172 5.4739,4.84932 2.54264,6.07739 -3.16048,1.32409 -5.80769,-4.84865 -2.54264,-6.07739 m 3.82529,6.79571 c 3.04873,-0.91158 4.89746,4.28736 1.70287,5.28889 -3.29584,1.03328 -4.86311,-4.34397 -1.70287,-5.28889 m 1.70304,6.99144 c 4.70418,-0.46434 3.64963,7.48743 0,7.78123 -4.62867,0.37262 -4.32321,-7.35449 0,-7.78123 m -1.49088,14.6882 c 2.31132,-0.30169 3.5608,2.19096 3.11091,4.19456 -0.44261,1.97126 -2.83488,3.81551 -4.81476,4.00393 -2.00842,0.19114 -3.5319,-1.67635 -3.03203,-3.57796 0.59657,-2.26953 2.32456,-4.3058 4.73588,-4.62053 m -69.409797,2.19637 c 1.966822,-0.74824 6.860651,3.25974 4.020203,4.39589 -1.314327,0.52571 -3.636558,0.28727 -4.632854,-0.73936 -0.927309,-0.95555 -0.777829,-3.12755 0.612651,-3.65653 m -8.115505,2.7295 c 1.737268,-0.47683 4.878838,0.61685 4.371556,2.88939 -0.307019,1.37539 -3.02517,3.40002 -4.371718,3.67181 -4.128621,0.83331 -2.994291,-5.73931 1.62e-4,-6.5612 m 67.728132,5.97927 c 3.80968,-0.66311 4.71561,2.50857 3.67081,5.4294 -0.64789,1.81126 -3.0557,3.48407 -4.9487,3.76039 -1.22587,0.17893 -4.2136,-0.99394 -4.1474,-2.48562 0.12542,-2.82631 2.53782,-6.20158 5.42529,-6.70417 m -45.152195,3.03006 c 4.551246,-0.57274 8.856492,8.43584 2.981746,8.78223 -1.796553,0.10593 -5.161225,-2.76758 -5.46736,-4.46605 -0.292428,-1.6224 0.592629,-4.07796 2.485614,-4.31618 m -30.030306,0.80822 c 1.511875,-0.40842 2.783794,1.30079 2.874598,2.65603 0.115844,1.729 -1.425608,4.04133 -3.087746,4.53179 -1.324398,0.3908 -2.528057,-1.24279 -2.719465,-2.40197 -0.281698,-1.70599 1.229894,-4.32587 2.932613,-4.78585 m 62.190591,3.39588 c 0.77215,-0.01 1.34805,0.59185 1.91684,1.03632 2.21175,1.72833 2.27352,2.90406 0.753,5.24895 -0.86195,1.32927 -4.0724,2.25215 -5.65159,2.27297 -0.74415,0.01 -1.34914,-0.49505 -1.91684,-0.91307 -2.50363,-1.8435 -1.96634,-3.39653 -0.16105,-5.8008 0.75732,-1.00859 3.80352,-1.82838 5.05964,-1.84437 m -19.32055,2.15743 c 1.20435,-0.50345 4.65596,-0.43966 5.68131,0.36516 2.30993,1.81312 3.03766,5.48248 -0.22448,6.91864 -1.18529,0.52182 -5.75632,0.0839 -6.7339,-0.71883 -2.431373,-1.9966 -1.616463,-5.35541 1.27707,-6.56497 m -44.357302,3.1949 c 2.396832,-0.90681 2.110803,3.62445 0.589645,4.21132 -2.309676,0.89108 -2.560033,-3.46585 -0.589645,-4.21132 m 0.210025,10.40078 c 3.304365,-0.85339 4.025116,5.34085 1.055543,6.27114 -2.928462,0.91742 -4.202202,-5.45847 -1.055543,-6.27114 m 0.211996,10.74361 c 2.098432,-0.16407 1.252776,4.07233 -0.635825,4.15775 -2.479548,0.11213 -1.340325,-4.00325 0.635825,-4.15775 m -8.731279,8.25091 c 2.515984,-0.84403 2.375344,3.04344 0.211996,3.76432 -2.688834,0.896 -2.089466,-3.13449 -0.211996,-3.76432 z"
       id="path1"
       sodipodi:nodetypes="cssssccsssssscssssscssssssscscccccccccsscsssssssccssssssssssccssscsssssscsccsssssssssssccsccsccssssccsssscccsssssssscsssssssssssscssssccsccsccsccsccsssccssccssccsssccssccsssccsscssccsscccsccsccscsss" /><path
       style="fill:#262a28;fill-opacity:1;fill-rule:evenodd;stroke:#000000;stroke-width:0.264583px;stroke-linecap:butt;stroke-linejoin:miter;stroke-opacity:1"
       d="m 107.1177,102.77566 -25.783981,15.72642 -0.0024,28.88266 25.997031,15.14962 v -11.77412 l -15.579758,-9.02468 v -17.25663 l 15.609918,-9.04213 z"
       id="path27" /></g></svg>
