<?xml version="1.0" encoding="UTF-8" standalone="no"?>
<!-- Created with Inkscape (http://www.inkscape.org/) -->

<svg
   width="64.20726mm"
   height="59.803623mm"
   viewBox="0 0 64.20726 59.803623"
   version="1.1"
   id="svg5"
   inkscape:version="1.2.1 (9c6d41e410, 2022-07-14)"
   sodipodi:docname="logoPytChem.svg"
   xml:space="preserve"
   xmlns:inkscape="http://www.inkscape.org/namespaces/inkscape"
   xmlns:sodipodi="http://sodipodi.sourceforge.net/DTD/sodipodi-0.dtd"
   xmlns:xlink="http://www.w3.org/1999/xlink"
   xmlns="http://www.w3.org/2000/svg"
   xmlns:svg="http://www.w3.org/2000/svg"><sodipodi:namedview
     id="namedview7"
     pagecolor="#ffffff"
     bordercolor="#666666"
     borderopacity="1.0"
     inkscape:showpageshadow="2"
     inkscape:pageopacity="0.0"
     inkscape:pagecheckerboard="0"
     inkscape:deskcolor="#d1d1d1"
     inkscape:document-units="mm"
     showgrid="false"
     inkscape:zoom="1.829812"
     inkscape:cx="-36.342531"
     inkscape:cy="75.690836"
     inkscape:window-width="2580"
     inkscape:window-height="1080"
     inkscape:window-x="456"
     inkscape:window-y="166"
     inkscape:window-maximized="0"
     inkscape:current-layer="layer1" /><defs
     id="defs2"><linearGradient
       inkscape:collect="always"
       xlink:href="#linearGradient4671"
       id="linearGradient1475"
       gradientUnits="userSpaceOnUse"
       gradientTransform="matrix(0.14646846,0,0,0.14788251,40.93286,118.27791)"
       x1="150.96111"
       y1="192.35176"
       x2="112.03144"
       y2="137.27299" /><linearGradient
       id="linearGradient4671"><stop
         style="stop-color:#ffd43b;stop-opacity:1;"
         offset="0"
         id="stop4673" /><stop
         style="stop-color:#ffe873;stop-opacity:1"
         offset="1"
         id="stop4675" /></linearGradient><linearGradient
       inkscape:collect="always"
       xlink:href="#linearGradient4689"
       id="linearGradient1478"
       gradientUnits="userSpaceOnUse"
       gradientTransform="matrix(0.14646846,0,0,0.14788251,40.93286,118.27791)"
       x1="26.648937"
       y1="20.603781"
       x2="135.66525"
       y2="114.39767" /><linearGradient
       id="linearGradient4689"><stop
         style="stop-color:#5a9fd4;stop-opacity:1;"
         offset="0"
         id="stop4691" /><stop
         style="stop-color:#306998;stop-opacity:1;"
         offset="1"
         id="stop4693" /></linearGradient></defs><g
     inkscape:label="Layer 1"
     inkscape:groupmode="layer"
     id="layer1"
     transform="translate(-41.045663,-99.675337)"><path
       sodipodi:type="star"
       style="fill:#ffffff;stroke:#800000;stroke-width:0.9484;stroke-linecap:round;stroke-linejoin:round;stroke-dasharray:none;stroke-opacity:1;stop-color:#000000"
       id="path1010-3"
       inkscape:flatsided="true"
       sodipodi:sides="6"
       sodipodi:cx="66.166733"
       sodipodi:cy="81.448463"
       sodipodi:r1="9.6068897"
       sodipodi:r2="8.3198109"
       sodipodi:arg1="1.5707963"
       sodipodi:arg2="2.0943951"
       inkscape:rounded="0"
       inkscape:randomized="0"
       d="m 66.166733,91.055353 -8.319811,-4.803444 0,-9.60689 8.319811,-4.803445 8.31981,4.803444 0,9.60689 z"
       transform="matrix(2.1168582,0,0,2.1008034,-80.404254,-34.394153)" /><path
       style="fill:none;fill-rule:evenodd;stroke:#000080;stroke-width:2;stroke-linecap:butt;stroke-linejoin:miter;stroke-dasharray:none;stroke-opacity:1"
       d="m 84.242982,107.8543 c 8.820588,-5.09257 8.884408,-5.12942 8.884408,-5.12942"
       id="path1178" /><path
       style="fill:none;fill-rule:evenodd;stroke:#000080;stroke-width:2;stroke-linecap:butt;stroke-linejoin:miter;stroke-dasharray:none;stroke-opacity:1"
       d="m 91.58597,102.7249 c 8.82059,5.09257 8.88441,5.12942 8.88441,5.12942"
       id="path1178-7" /><path
       sodipodi:type="star"
       style="fill:#37abc8;stroke:#000080;stroke-width:2;stroke-linecap:round;stroke-linejoin:round;stroke-dasharray:none;stroke-opacity:1;stop-color:#000000"
       id="path1010"
       inkscape:flatsided="true"
       sodipodi:sides="6"
       sodipodi:cx="66.166733"
       sodipodi:cy="81.448463"
       sodipodi:r1="9.6068897"
       sodipodi:r2="8.3198109"
       sodipodi:arg1="1.5707963"
       sodipodi:arg2="2.0943951"
       inkscape:rounded="0"
       inkscape:randomized="0"
       d="m 66.166733,91.055353 -8.319811,-4.803444 0,-9.60689 8.319811,-4.803445 8.31981,4.803444 0,9.60689 z"
       inkscape:transform-center-y="-1.0261224e-06"
       transform="translate(9.505108,31.349305)" /><path
       style="fill:#000080;stroke:#000080;stroke-width:2;stroke-linecap:round;stroke-linejoin:round;stroke-dasharray:none;stroke-opacity:1;stop-color:#000000"
       id="path1232"
       sodipodi:type="arc"
       sodipodi:cx="92.713043"
       sodipodi:cy="103.0072"
       sodipodi:rx="2.3318648"
       sodipodi:ry="2.3318648"
       sodipodi:start="1.5708036"
       sodipodi:end="1.5706309"
       sodipodi:open="true"
       sodipodi:arc-type="arc"
       d="m 92.713026,105.33907 a 2.3318648,2.3318648 0 0 1 -2.331848,-2.33178 2.3318648,2.3318648 0 0 1 2.331681,-2.33195 2.3318648,2.3318648 0 0 1 2.332049,2.33158 2.3318648,2.3318648 0 0 1 -2.331479,2.33215" /><path
       style="fill:#000080;stroke:#000080;stroke-width:2;stroke-linecap:round;stroke-linejoin:round;stroke-dasharray:none;stroke-opacity:1;stop-color:#000000"
       id="path1232-6"
       sodipodi:type="arc"
       sodipodi:cx="101.92106"
       sodipodi:cy="108.6501"
       sodipodi:rx="2.3318648"
       sodipodi:ry="2.3318648"
       sodipodi:start="1.5708036"
       sodipodi:end="1.5706309"
       sodipodi:open="true"
       sodipodi:arc-type="arc"
       d="m 101.92104,110.98197 a 2.3318648,2.3318648 0 0 1 -2.331846,-2.33179 2.3318648,2.3318648 0 0 1 2.331676,-2.33194 2.3318648,2.3318648 0 0 1 2.33205,2.33158 2.3318648,2.3318648 0 0 1 -2.33148,2.33215" /><path
       style="fill:#800000;stroke:#800000;stroke-width:2;stroke-linecap:round;stroke-linejoin:round;stroke-dasharray:none;stroke-opacity:1;stop-color:#000000"
       id="path1232-6-2"
       sodipodi:type="arc"
       sodipodi:cx="59.563259"
       sodipodi:cy="156.14709"
       sodipodi:rx="2.3318648"
       sodipodi:ry="2.3318648"
       sodipodi:start="1.5708036"
       sodipodi:end="1.5706309"
       sodipodi:open="true"
       sodipodi:arc-type="arc"
       d="m 59.563242,158.47896 a 2.3318648,2.3318648 0 0 1 -2.331848,-2.33178 2.3318648,2.3318648 0 0 1 2.331681,-2.33195 2.3318648,2.3318648 0 0 1 2.332049,2.33158 2.3318648,2.3318648 0 0 1 -2.331479,2.33215" /><g
       id="g3780"
       transform="translate(0.35375178,0.75688731)"><path
         style="fill:url(#linearGradient1478);fill-opacity:1;stroke-width:0.264583"
         d="m 59.135259,121.32508 c -1.193448,0.006 -2.333172,0.10741 -3.335993,0.28479 -2.954217,0.52191 -3.490568,1.6143 -3.490568,3.62889 v 2.66065 h 6.981154 v 0.88689 h -6.981154 -2.61998 c -2.028916,0 -3.805489,1.21949 -4.361173,3.5394 -0.640995,2.65913 -0.669425,4.31849 0,7.09506 0.496246,2.06676 1.681343,3.53939 3.71026,3.53939 h 2.400269 v -3.18952 c 0,-2.30424 1.993687,-4.33678 4.361192,-4.33678 h 6.973009 c 1.941047,0 3.490586,-1.5982 3.490586,-3.54754 v -6.64755 c 0,-1.89194 -1.59607,-3.31315 -3.490586,-3.62889 -1.199238,-0.19963 -2.443588,-0.29034 -3.637016,-0.28479 z m -3.775359,2.13991 c 0.721093,0 1.309972,0.5985 1.309972,1.3344 0,0.73328 -0.588879,1.32624 -1.309972,1.32624 -0.723708,0 -1.30999,-0.59296 -1.30999,-1.32624 0,-0.7359 0.586282,-1.3344 1.30999,-1.3344 z"
         id="path1948" /><path
         style="fill:url(#linearGradient1475);fill-opacity:1;stroke-width:0.264583"
         d="m 67.133467,128.7863 v 3.10001 c 0,2.40341 -2.037622,4.42629 -4.361192,4.42629 h -6.973009 c -1.91002,0 -3.490568,1.63472 -3.490568,3.54752 v 6.64757 c 0,1.89192 1.645161,3.00473 3.490568,3.54753 2.209848,0.64977 4.328969,0.76721 6.973009,0 1.757538,-0.50886 3.490586,-1.53295 3.490586,-3.54753 v -2.66066 h -6.973009 v -0.88688 h 6.973009 3.490567 c 2.028936,0 2.784979,-1.41521 3.490586,-3.53939 0.728865,-2.18682 0.697837,-4.2898 0,-7.09506 -0.501419,-2.01981 -1.459073,-3.5394 -3.490586,-3.5394 z m -3.921808,16.8345 c 0.72369,0 1.309972,0.59297 1.309972,1.32626 0,0.73589 -0.586282,1.33439 -1.309972,1.33439 -0.721112,0 -1.30999,-0.5985 -1.30999,-1.33439 0,-0.73329 0.588878,-1.32626 1.30999,-1.32626 z"
         id="path1950" /></g></g></svg>
