<?xml version="1.0" encoding="UTF-8" standalone="no"?>
<!-- Created with Inkscape (http://www.inkscape.org/) -->

<svg
   width="210mm"
   height="297mm"
   viewBox="0 0 210 297"
   version="1.1"
   id="svg1"
   xml:space="preserve"
   sodipodi:docname="Logo_pyPhysChem_1.svg"
   inkscape:version="1.4 (e7c3feb100, 2024-10-09)"
   inkscape:export-filename="Logo_pyPhysChem_1-translucentBgd.png"
   inkscape:export-xdpi="300.008"
   inkscape:export-ydpi="300.008"
   xmlns:inkscape="http://www.inkscape.org/namespaces/inkscape"
   xmlns:sodipodi="http://sodipodi.sourceforge.net/DTD/sodipodi-0.dtd"
   xmlns="http://www.w3.org/2000/svg"
   xmlns:svg="http://www.w3.org/2000/svg"><sodipodi:namedview
     id="namedview1"
     pagecolor="#ffffff"
     bordercolor="#666666"
     borderopacity="1.0"
     inkscape:showpageshadow="2"
     inkscape:pageopacity="0.0"
     inkscape:pagecheckerboard="0"
     inkscape:deskcolor="#d1d1d1"
     inkscape:document-units="mm"
     inkscape:zoom="0.7906301"
     inkscape:cx="823.3939"
     inkscape:cy="561.57741"
     inkscape:window-width="2116"
     inkscape:window-height="1344"
     inkscape:window-x="83"
     inkscape:window-y="58"
     inkscape:window-maximized="0"
     inkscape:current-layer="layer1"
     inkscape:export-bgcolor="#ffffff00"><inkscape:page
       x="0"
       y="0"
       width="210"
       height="297"
       id="page1"
       margin="0"
       bleed="0" /><inkscape:page
       x="220"
       y="0"
       width="210"
       height="297"
       id="page2"
       margin="0"
       bleed="0"
       inkscape:export-filename="Logo_pyPhysChem_1-translucentBgd-woName.png"
       inkscape:export-xdpi="300.008"
       inkscape:export-ydpi="300.008" /></sodipodi:namedview><defs
     id="defs1"><filter
       style="color-interpolation-filters:sRGB;"
       inkscape:label="Drop Shadow"
       id="filter20"
       x="-0.254366"
       y="-0.11343385"
       width="1.6447441"
       height="1.2918558"><feFlood
         result="flood"
         in="SourceGraphic"
         flood-opacity="0.623529"
         flood-color="rgb(0,0,0)"
         id="feFlood19" /><feGaussianBlur
         result="blur"
         in="SourceGraphic"
         stdDeviation="0.800000"
         id="feGaussianBlur19" /><feOffset
         result="offset"
         in="blur"
         dx="1.100000"
         dy="1.100000"
         id="feOffset19" /><feComposite
         result="comp1"
         operator="in"
         in="flood"
         in2="offset"
         id="feComposite19" /><feComposite
         result="comp2"
         operator="over"
         in="SourceGraphic"
         in2="comp1"
         id="feComposite20" /></filter><filter
       style="color-interpolation-filters:sRGB"
       inkscape:label="Drop Shadow"
       id="filter20-7"
       x="-0.254366"
       y="-0.11343385"
       width="1.6447441"
       height="1.2918558"><feFlood
         result="flood"
         in="SourceGraphic"
         flood-opacity="0.623529"
         flood-color="rgb(0,0,0)"
         id="feFlood19-5" /><feGaussianBlur
         result="blur"
         in="SourceGraphic"
         stdDeviation="0.800000"
         id="feGaussianBlur19-3" /><feOffset
         result="offset"
         in="blur"
         dx="1.100000"
         dy="1.100000"
         id="feOffset19-5" /><feComposite
         result="comp1"
         operator="in"
         in="flood"
         in2="offset"
         id="feComposite19-6" /><feComposite
         result="comp2"
         operator="over"
         in="SourceGraphic"
         in2="comp1"
         id="feComposite20-2" /></filter><filter
       style="color-interpolation-filters:sRGB"
       inkscape:label="Drop Shadow"
       id="filter2"
       x="-0.25436601"
       y="-0.11343385"
       width="1.6447442"
       height="1.2918558"><feFlood
         result="flood"
         in="SourceGraphic"
         flood-opacity="0.623529"
         flood-color="rgb(0,0,0)"
         id="feFlood1" /><feGaussianBlur
         result="blur"
         in="SourceGraphic"
         stdDeviation="0.800000"
         id="feGaussianBlur1" /><feOffset
         result="offset"
         in="blur"
         dx="1.100000"
         dy="1.100000"
         id="feOffset1" /><feComposite
         result="comp1"
         operator="in"
         in="flood"
         in2="offset"
         id="feComposite1" /><feComposite
         result="comp2"
         operator="over"
         in="SourceGraphic"
         in2="comp1"
         id="feComposite2" /></filter><filter
       style="color-interpolation-filters:sRGB"
       inkscape:label="Drop Shadow"
       id="filter4"
       x="-0.25436601"
       y="-0.11343385"
       width="1.6447442"
       height="1.2918558"><feFlood
         result="flood"
         in="SourceGraphic"
         flood-opacity="0.623529"
         flood-color="rgb(0,0,0)"
         id="feFlood2" /><feGaussianBlur
         result="blur"
         in="SourceGraphic"
         stdDeviation="0.800000"
         id="feGaussianBlur2" /><feOffset
         result="offset"
         in="blur"
         dx="1.100000"
         dy="1.100000"
         id="feOffset2" /><feComposite
         result="comp1"
         operator="in"
         in="flood"
         in2="offset"
         id="feComposite3" /><feComposite
         result="comp2"
         operator="over"
         in="SourceGraphic"
         in2="comp1"
         id="feComposite4" /></filter><filter
       style="color-interpolation-filters:sRGB"
       inkscape:label="Drop Shadow"
       id="filter6"
       x="-0.25436601"
       y="-0.11343385"
       width="1.6447442"
       height="1.2918558"><feFlood
         result="flood"
         in="SourceGraphic"
         flood-opacity="0.623529"
         flood-color="rgb(0,0,0)"
         id="feFlood4" /><feGaussianBlur
         result="blur"
         in="SourceGraphic"
         stdDeviation="0.800000"
         id="feGaussianBlur4" /><feOffset
         result="offset"
         in="blur"
         dx="1.100000"
         dy="1.100000"
         id="feOffset4" /><feComposite
         result="comp1"
         operator="in"
         in="flood"
         in2="offset"
         id="feComposite5" /><feComposite
         result="comp2"
         operator="over"
         in="SourceGraphic"
         in2="comp1"
         id="feComposite6" /></filter><filter
       style="color-interpolation-filters:sRGB"
       inkscape:label="Drop Shadow"
       id="filter8"
       x="-0.25436601"
       y="-0.11343385"
       width="1.6447442"
       height="1.2918558"><feFlood
         result="flood"
         in="SourceGraphic"
         flood-opacity="0.623529"
         flood-color="rgb(0,0,0)"
         id="feFlood6" /><feGaussianBlur
         result="blur"
         in="SourceGraphic"
         stdDeviation="0.800000"
         id="feGaussianBlur6" /><feOffset
         result="offset"
         in="blur"
         dx="1.100000"
         dy="1.100000"
         id="feOffset6" /><feComposite
         result="comp1"
         operator="in"
         in="flood"
         in2="offset"
         id="feComposite7" /><feComposite
         result="comp2"
         operator="over"
         in="SourceGraphic"
         in2="comp1"
         id="feComposite8" /></filter><filter
       style="color-interpolation-filters:sRGB"
       inkscape:label="Drop Shadow"
       id="filter10"
       x="-0.25436601"
       y="-0.11343385"
       width="1.6447442"
       height="1.2918558"><feFlood
         result="flood"
         in="SourceGraphic"
         flood-opacity="0.623529"
         flood-color="rgb(0,0,0)"
         id="feFlood8" /><feGaussianBlur
         result="blur"
         in="SourceGraphic"
         stdDeviation="0.800000"
         id="feGaussianBlur8" /><feOffset
         result="offset"
         in="blur"
         dx="1.100000"
         dy="1.100000"
         id="feOffset8" /><feComposite
         result="comp1"
         operator="in"
         in="flood"
         in2="offset"
         id="feComposite9" /><feComposite
         result="comp2"
         operator="over"
         in="SourceGraphic"
         in2="comp1"
         id="feComposite10" /></filter><filter
       style="color-interpolation-filters:sRGB"
       inkscape:label="Drop Shadow"
       id="filter12"
       x="-0.25436601"
       y="-0.11343385"
       width="1.6447442"
       height="1.2918558"><feFlood
         result="flood"
         in="SourceGraphic"
         flood-opacity="0.623529"
         flood-color="rgb(0,0,0)"
         id="feFlood10" /><feGaussianBlur
         result="blur"
         in="SourceGraphic"
         stdDeviation="0.800000"
         id="feGaussianBlur10" /><feOffset
         result="offset"
         in="blur"
         dx="1.100000"
         dy="1.100000"
         id="feOffset10" /><feComposite
         result="comp1"
         operator="in"
         in="flood"
         in2="offset"
         id="feComposite11" /><feComposite
         result="comp2"
         operator="over"
         in="SourceGraphic"
         in2="comp1"
         id="feComposite12" /></filter><filter
       style="color-interpolation-filters:sRGB"
       inkscape:label="Drop Shadow"
       id="filter14"
       x="-0.25436601"
       y="-0.11343385"
       width="1.6447442"
       height="1.2918558"><feFlood
         result="flood"
         in="SourceGraphic"
         flood-opacity="0.623529"
         flood-color="rgb(0,0,0)"
         id="feFlood12" /><feGaussianBlur
         result="blur"
         in="SourceGraphic"
         stdDeviation="0.800000"
         id="feGaussianBlur12" /><feOffset
         result="offset"
         in="blur"
         dx="1.100000"
         dy="1.100000"
         id="feOffset12" /><feComposite
         result="comp1"
         operator="in"
         in="flood"
         in2="offset"
         id="feComposite13" /><feComposite
         result="comp2"
         operator="over"
         in="SourceGraphic"
         in2="comp1"
         id="feComposite14" /></filter><filter
       style="color-interpolation-filters:sRGB"
       inkscape:label="Drop Shadow"
       id="filter16"
       x="-0.25436601"
       y="-0.11343385"
       width="1.6447442"
       height="1.2918558"><feFlood
         result="flood"
         in="SourceGraphic"
         flood-opacity="0.623529"
         flood-color="rgb(0,0,0)"
         id="feFlood14" /><feGaussianBlur
         result="blur"
         in="SourceGraphic"
         stdDeviation="0.800000"
         id="feGaussianBlur14" /><feOffset
         result="offset"
         in="blur"
         dx="1.100000"
         dy="1.100000"
         id="feOffset14" /><feComposite
         result="comp1"
         operator="in"
         in="flood"
         in2="offset"
         id="feComposite15" /><feComposite
         result="comp2"
         operator="over"
         in="SourceGraphic"
         in2="comp1"
         id="feComposite16" /></filter><filter
       style="color-interpolation-filters:sRGB"
       inkscape:label="Drop Shadow"
       id="filter18"
       x="-0.25436601"
       y="-0.11343385"
       width="1.6447442"
       height="1.2918558"><feFlood
         result="flood"
         in="SourceGraphic"
         flood-opacity="0.623529"
         flood-color="rgb(0,0,0)"
         id="feFlood16" /><feGaussianBlur
         result="blur"
         in="SourceGraphic"
         stdDeviation="0.800000"
         id="feGaussianBlur16" /><feOffset
         result="offset"
         in="blur"
         dx="1.100000"
         dy="1.100000"
         id="feOffset16" /><feComposite
         result="comp1"
         operator="in"
         in="flood"
         in2="offset"
         id="feComposite17" /><feComposite
         result="comp2"
         operator="over"
         in="SourceGraphic"
         in2="comp1"
         id="feComposite18" /></filter><filter
       style="color-interpolation-filters:sRGB"
       inkscape:label="Drop Shadow"
       id="filter22"
       x="-0.25436601"
       y="-0.11343385"
       width="1.6447442"
       height="1.2918558"><feFlood
         result="flood"
         in="SourceGraphic"
         flood-opacity="0.623529"
         flood-color="rgb(0,0,0)"
         id="feFlood18" /><feGaussianBlur
         result="blur"
         in="SourceGraphic"
         stdDeviation="0.800000"
         id="feGaussianBlur18" /><feOffset
         result="offset"
         in="blur"
         dx="1.100000"
         dy="1.100000"
         id="feOffset18" /><feComposite
         result="comp1"
         operator="in"
         in="flood"
         in2="offset"
         id="feComposite21" /><feComposite
         result="comp2"
         operator="over"
         in="SourceGraphic"
         in2="comp1"
         id="feComposite22" /></filter><filter
       style="color-interpolation-filters:sRGB"
       inkscape:label="Drop Shadow"
       id="filter24"
       x="-0.25436601"
       y="-0.11343385"
       width="1.6447442"
       height="1.2918558"><feFlood
         result="flood"
         in="SourceGraphic"
         flood-opacity="0.623529"
         flood-color="rgb(0,0,0)"
         id="feFlood22" /><feGaussianBlur
         result="blur"
         in="SourceGraphic"
         stdDeviation="0.800000"
         id="feGaussianBlur22" /><feOffset
         result="offset"
         in="blur"
         dx="1.100000"
         dy="1.100000"
         id="feOffset22" /><feComposite
         result="comp1"
         operator="in"
         in="flood"
         in2="offset"
         id="feComposite23" /><feComposite
         result="comp2"
         operator="over"
         in="SourceGraphic"
         in2="comp1"
         id="feComposite24" /></filter><filter
       style="color-interpolation-filters:sRGB"
       inkscape:label="Drop Shadow"
       id="filter26"
       x="-0.25436601"
       y="-0.11343385"
       width="1.6447442"
       height="1.2918558"><feFlood
         result="flood"
         in="SourceGraphic"
         flood-opacity="0.623529"
         flood-color="rgb(0,0,0)"
         id="feFlood24" /><feGaussianBlur
         result="blur"
         in="SourceGraphic"
         stdDeviation="0.800000"
         id="feGaussianBlur24" /><feOffset
         result="offset"
         in="blur"
         dx="1.100000"
         dy="1.100000"
         id="feOffset24" /><feComposite
         result="comp1"
         operator="in"
         in="flood"
         in2="offset"
         id="feComposite25" /><feComposite
         result="comp2"
         operator="over"
         in="SourceGraphic"
         in2="comp1"
         id="feComposite26" /></filter></defs><g
     inkscape:label="Layer 1"
     inkscape:groupmode="layer"
     id="layer1"><path
       style="fill:#006680;stroke:#006680;stroke-width:3.77953;stroke-linejoin:round;stroke-dasharray:none;stroke-opacity:1;paint-order:stroke markers fill;filter:url(#filter20)"
       d="m 382.6669,720.92255 c -10.85876,-1.71346 -23.59574,-8.82348 -32.38828,-18.07974 -16.55657,-17.42975 -21.66402,-42.06104 -13.29461,-64.11471 6.05565,-15.95679 15.86113,-24.28484 43.19778,-36.68898 26.58495,-12.06305 64.90211,-24.9515 98.95143,-33.28353 26.23326,-6.4194 32.90745,-8.8913 39.37301,-14.58251 5.775,-5.08336 10.1027,-15.56419 10.1027,-24.46672 0,-12.12641 -8.19138,-24.04675 -19.46337,-28.32368 -7.21688,-2.7383 -17.17357,-2.49073 -26.69275,0.66372 -14.59254,4.83562 -35.13597,16.20349 -68.7487,38.0426 -19.35759,12.57716 -45.32571,28.59544 -56.15868,34.64114 -14.60991,8.15356 -41.05488,20.03333 -54.73919,24.59028 -20.67239,6.88402 -42.78901,3.92777 -60.93278,-8.14467 -22.2211,-14.78542 -33.81656,-39.24366 -31.00136,-65.39103 1.7391,-16.15266 7.22865,-29.03294 17.09836,-40.11831 6.64325,-7.46148 21.55259,-16.92175 32.74279,-20.7759 2.21911,-0.76431 12.09565,-2.91118 21.94787,-4.77082 35.89754,-6.77575 67.91383,-15.80939 97.89267,-27.62115 25.69559,-10.12415 35.4294,-17.2178 41.62587,-30.33547 2.87992,-6.09669 3.93099,-11.84766 3.95823,-21.65779 0.0202,-7.27842 -0.19853,-8.73608 -1.84407,-12.28868 -2.14537,-4.63167 -6.49048,-9.38311 -9.20336,-10.064 -2.31721,-0.58158 -3.91934,0.77919 -7.97936,6.77728 -6.33336,9.35661 -17.1175,17.93986 -28.48648,22.67277 -11.20026,4.66269 -32.90893,4.87186 -46.86024,0.45153 -4.11167,-1.30273 -7.72426,-3.14028 -11.43865,-5.81824 -2.98593,-2.15277 -6.97135,-5.00223 -8.85648,-6.33212 l -3.4275,-2.41799 h -16.09184 c -8.85051,0 -17.66417,0.21551 -19.58592,0.47892 -3.41966,0.46872 -3.60389,0.63379 -8.64906,7.74951 -5.53829,7.81124 -8.18107,10.37738 -10.67073,10.36131 -2.58006,-0.0167 -4.92177,-0.84991 -4.91975,-1.75061 0.001,-0.46377 1.66268,-3.33875 3.69253,-6.38885 4.50869,-6.77482 5.53508,-9.14751 4.9557,-11.45596 -0.46344,-1.8465 -2.7484,-3.05778 -12.12941,-6.42992 -5.15737,-1.85389 -7.44464,-3.64095 -8.12387,-6.34725 -0.89777,-3.57696 0.0112,-4.29535 4.73031,-3.73851 7.63965,0.90144 16.85152,3.39769 19.85136,5.37935 2.87093,1.89651 3.12907,1.92878 11.90393,1.48795 13.81554,-0.69406 28.0139,-2.57298 29.48183,-3.90145 0.9755,-0.88281 1.33796,-2.79834 1.58202,-8.36075 0.44535,-10.1499 2.02318,-12.98695 13.52977,-24.32746 10.51037,-10.35868 17.39854,-14.86242 28.59307,-18.69522 17.14505,-5.87015 41.09591,-6.38497 61.14594,-1.31433 9.40323,2.37807 22.00028,8.61792 28.64384,14.18849 12.01721,10.07634 22.17081,28.00851 26.09795,46.09131 1.85001,8.51856 1.71087,22.73262 -0.29547,30.18471 -3.37655,12.54135 -8.17981,22.12336 -17.64122,35.19242 -8.82987,12.1967 -15.20446,17.39525 -29.72317,24.2396 -19.24123,9.07062 -49.45202,21.2712 -69.20556,27.94857 -16.55204,5.59515 -21.84669,7.07839 -46.23414,12.95197 -29.17636,7.02697 -35.76737,9.49227 -41.97564,15.70054 -8.85707,8.85706 -10.93517,20.92764 -5.90804,34.31669 4.33488,11.54537 13.48697,17.73112 26.41421,17.85297 3.27358,0.0309 7.79335,-0.3735 10.04394,-0.89856 7.08305,-1.65246 27.62452,-12.21747 56.17167,-28.89055 12.55099,-7.33046 20.8703,-12.66278 39.80377,-25.51252 19.64189,-13.33052 63.1206,-37.56481 79.84902,-44.50646 17.26926,-7.16609 38.04937,-8.37919 52.70345,-3.07672 14.4796,5.23932 30.72132,18.76847 40.20003,33.4861 9.33423,14.49328 12.5701,33.29121 8.38868,48.73172 -2.94049,10.85819 -12.59305,27.21523 -21.48098,36.40127 -10.36189,10.70943 -20.715,15.25422 -53.51628,23.49252 -12.75362,3.20317 -28.04297,7.36478 -33.97634,9.24803 -5.93336,1.88326 -18.65569,5.77788 -28.27183,8.65471 -31.33438,9.37421 -44.09783,14.87504 -50.16068,21.61839 -9.53489,10.60509 -6.62125,31.86603 5.09631,37.18804 4.71585,2.14189 11.09441,1.84342 18.83992,-0.88159 8.41892,-2.96192 12.28991,-3.06954 16.73381,-0.46524 4.92528,2.8864 7.25865,7.84142 7.25865,15.41404 0,8.39402 -1.57714,12.82708 -6.19945,17.42559 -4.37565,4.35311 -8.74516,6.63916 -14.84538,7.76685 -6.35572,1.17492 -16.74304,1.57485 -21.4818,0.8271 z M 360.18689,360.79289 c 3.98967,-1.93136 6.97498,-7.36156 6.97498,-12.68731 0,-6.22631 -4.47155,-13.91478 -9.68174,-16.64697 -2.89428,-1.51774 -8.26627,-2.08334 -10.77814,-1.1348 -2.6418,0.99761 -7.50033,5.507 -8.98927,8.34328 -0.64897,1.23621 -1.05467,4.2464 -1.05467,7.82524 0,6.91453 1.51135,9.76644 7.15765,13.50639 3.03311,2.00905 4.17577,2.32718 8.35891,2.32718 3.37235,0 5.8083,-0.46608 8.01228,-1.53301 z"
       id="path57"
       transform="scale(0.26458333)" /><circle
       style="fill:#004455;stroke:none;stroke-width:1;stroke-linejoin:round;stroke-dasharray:none;paint-order:stroke markers fill;filter:url(#filter20)"
       id="path54"
       cx="103.60183"
       cy="61.877106"
       r="8.4630823" /><circle
       style="fill:#004455;stroke:none;stroke-width:1;stroke-linejoin:round;stroke-dasharray:none;paint-order:stroke markers fill;filter:url(#filter20)"
       id="path54-6"
       cx="168.13664"
       cy="98.048027"
       r="8.4630823" /><circle
       style="fill:#004455;stroke:none;stroke-width:1;stroke-linejoin:round;stroke-dasharray:none;paint-order:stroke markers fill;filter:url(#filter20)"
       id="path54-2"
       cx="167.41708"
       cy="172.23592"
       r="8.4630823" /><circle
       style="fill:#004455;stroke:none;stroke-width:1;stroke-linejoin:round;stroke-dasharray:none;paint-order:stroke markers fill;filter:url(#filter20)"
       id="path54-3"
       cx="102.54107"
       cy="207.72888"
       r="8.4630823" /><circle
       style="fill:#004455;stroke:none;stroke-width:1;stroke-linejoin:round;stroke-dasharray:none;paint-order:stroke markers fill;filter:url(#filter20)"
       id="path54-26"
       cx="36.847176"
       cy="171.186"
       r="8.4630823" /><circle
       style="fill:#004455;stroke:none;stroke-width:1;stroke-linejoin:round;stroke-dasharray:none;paint-order:stroke markers fill;filter:url(#filter20)"
       id="path54-9"
       cx="38.388592"
       cy="98.837196"
       r="8.4630823" /><path
       style="fill:#0088aa;fill-rule:evenodd;stroke:#004455;stroke-width:0.264583px;stroke-linecap:butt;stroke-linejoin:miter;stroke-opacity:1;filter:url(#filter20)"
       d="m 46.572326,88.906722 43.170162,-25.41543 c 0,0 0.35884,2.901104 1.07616,4.129455 0.69246,1.185776 2.96132,2.863673 2.96132,2.863673 l -43.49031,25.109143 c 0,0 -0.09553,-2.644292 -0.700518,-3.770361 -0.661964,-1.232128 -3.016814,-2.91648 -3.016814,-2.91648 z"
       id="path56"
       sodipodi:nodetypes="ccaccac" /><path
       style="fill:#0088aa;fill-rule:evenodd;stroke:#004455;stroke-width:0.264583px;stroke-linecap:butt;stroke-linejoin:miter;stroke-opacity:1;filter:url(#filter20)"
       d="m 32.585154,159.96982 -0.42533,-50.09417 c 0,0 2.69185,1.13979 4.11429,1.13274 1.37315,-0.007 3.96068,-1.13274 3.96068,-1.13274 v 50.21829 c 0,0 -2.33779,-1.23942 -3.61549,-1.27852 -1.39803,-0.0428 -4.03415,1.1544 -4.03415,1.1544 z"
       id="path56-93"
       sodipodi:nodetypes="ccaccac" /><path
       style="fill:#0088aa;fill-rule:evenodd;stroke:#004455;stroke-width:0.264583px;stroke-linecap:butt;stroke-linejoin:miter;stroke-opacity:1;filter:url(#filter20)"
       d="m 164.74837,159.89366 -0.42533,-50.09417 c 0,0 2.69185,1.13979 4.11429,1.13274 1.37315,-0.007 3.96068,-1.13274 3.96068,-1.13274 v 50.21829 c 0,0 -2.33779,-1.23942 -3.61549,-1.27852 -1.39803,-0.0428 -4.03415,1.1544 -4.03415,1.1544 z"
       id="path56-93-0"
       sodipodi:nodetypes="ccaccac" /><path
       style="fill:#0088aa;fill-rule:evenodd;stroke:#004455;stroke-width:0.264583px;stroke-linecap:butt;stroke-linejoin:miter;stroke-opacity:1;filter:url(#filter20)"
       d="m 160.60988,87.960496 -43.17016,-25.41543 c 0,0 -0.35884,2.901104 -1.07616,4.129455 -0.69246,1.185776 -2.96132,2.863673 -2.96132,2.863673 l 43.49031,25.109143 c 0,0 0.0955,-2.644292 0.70052,-3.770361 0.66196,-1.232128 3.01681,-2.91648 3.01681,-2.91648 z"
       id="path56-9"
       sodipodi:nodetypes="ccaccac" /><path
       style="fill:#0088aa;fill-rule:evenodd;stroke:#004455;stroke-width:0.264583px;stroke-linecap:butt;stroke-linejoin:miter;stroke-opacity:1;filter:url(#filter20)"
       d="m 45.369495,181.15349 43.17016,25.41543 c 0,0 0.35884,-2.90111 1.07616,-4.12946 0.69246,-1.18577 2.96132,-2.86367 2.96132,-2.86367 l -43.49031,-25.10914 c 0,0 -0.0955,2.64429 -0.70051,3.77036 -0.66197,1.23213 -3.01682,2.91648 -3.01682,2.91648 z"
       id="path56-97"
       sodipodi:nodetypes="ccaccac" /><path
       style="fill:#0088aa;fill-rule:evenodd;stroke:#004455;stroke-width:0.264583px;stroke-linecap:butt;stroke-linejoin:miter;stroke-opacity:1;filter:url(#filter20)"
       d="m 159.40702,182.09971 -43.17016,25.41543 c 0,0 -0.35884,-2.9011 -1.07616,-4.12945 -0.69246,-1.18578 -2.96132,-2.86367 -2.96132,-2.86367 l 43.49031,-25.10915 c 0,0 0.0955,2.6443 0.70052,3.77036 0.66196,1.23213 3.01681,2.91648 3.01681,2.91648 z"
       id="path56-9-3"
       sodipodi:nodetypes="ccaccac" /><text
       xml:space="preserve"
       style="font-weight:bold;font-size:19.7556px;line-height:0px;font-family:Calibri;-inkscape-font-specification:'Calibri Bold';text-decoration-color:#000000;letter-spacing:0px;word-spacing:0px;fill:#004455;stroke:none;stroke-width:0.264583px;stroke-linecap:butt;stroke-linejoin:miter;stroke-opacity:1;-inkscape-stroke:none;filter:url(#filter20);stop-color:#000000"
       x="29.726055"
       y="242.07861"
       id="text57"><tspan
         sodipodi:role="line"
         id="tspan57"
         style="font-size:19.7556px;fill:#004455;stroke:none;stroke-width:0.264583px"
         x="29.726055"
         y="242.07861">p y P h y s C h e m</tspan></text><path
       style="fill:#006680;stroke:#006680;stroke-width:3.77953;stroke-linejoin:round;stroke-dasharray:none;stroke-opacity:1;paint-order:stroke markers fill;filter:url(#filter20-7)"
       d="m 382.6669,720.92255 c -10.85876,-1.71346 -23.59574,-8.82348 -32.38828,-18.07974 -16.55657,-17.42975 -21.66402,-42.06104 -13.29461,-64.11471 6.05565,-15.95679 15.86113,-24.28484 43.19778,-36.68898 26.58495,-12.06305 64.90211,-24.9515 98.95143,-33.28353 26.23326,-6.4194 32.90745,-8.8913 39.37301,-14.58251 5.775,-5.08336 10.1027,-15.56419 10.1027,-24.46672 0,-12.12641 -8.19138,-24.04675 -19.46337,-28.32368 -7.21688,-2.7383 -17.17357,-2.49073 -26.69275,0.66372 -14.59254,4.83562 -35.13597,16.20349 -68.7487,38.0426 -19.35759,12.57716 -45.32571,28.59544 -56.15868,34.64114 -14.60991,8.15356 -41.05488,20.03333 -54.73919,24.59028 -20.67239,6.88402 -42.78901,3.92777 -60.93278,-8.14467 -22.2211,-14.78542 -33.81656,-39.24366 -31.00136,-65.39103 1.7391,-16.15266 7.22865,-29.03294 17.09836,-40.11831 6.64325,-7.46148 21.55259,-16.92175 32.74279,-20.7759 2.21911,-0.76431 12.09565,-2.91118 21.94787,-4.77082 35.89754,-6.77575 67.91383,-15.80939 97.89267,-27.62115 25.69559,-10.12415 35.4294,-17.2178 41.62587,-30.33547 2.87992,-6.09669 3.93099,-11.84766 3.95823,-21.65779 0.0202,-7.27842 -0.19853,-8.73608 -1.84407,-12.28868 -2.14537,-4.63167 -6.49048,-9.38311 -9.20336,-10.064 -2.31721,-0.58158 -3.91934,0.77919 -7.97936,6.77728 -6.33336,9.35661 -17.1175,17.93986 -28.48648,22.67277 -11.20026,4.66269 -32.90893,4.87186 -46.86024,0.45153 -4.11167,-1.30273 -7.72426,-3.14028 -11.43865,-5.81824 -2.98593,-2.15277 -6.97135,-5.00223 -8.85648,-6.33212 l -3.4275,-2.41799 h -16.09184 c -8.85051,0 -17.66417,0.21551 -19.58592,0.47892 -3.41966,0.46872 -3.60389,0.63379 -8.64906,7.74951 -5.53829,7.81124 -8.18107,10.37738 -10.67073,10.36131 -2.58006,-0.0167 -4.92177,-0.84991 -4.91975,-1.75061 0.001,-0.46377 1.66268,-3.33875 3.69253,-6.38885 4.50869,-6.77482 5.53508,-9.14751 4.9557,-11.45596 -0.46344,-1.8465 -2.7484,-3.05778 -12.12941,-6.42992 -5.15737,-1.85389 -7.44464,-3.64095 -8.12387,-6.34725 -0.89777,-3.57696 0.0112,-4.29535 4.73031,-3.73851 7.63965,0.90144 16.85152,3.39769 19.85136,5.37935 2.87093,1.89651 3.12907,1.92878 11.90393,1.48795 13.81554,-0.69406 28.0139,-2.57298 29.48183,-3.90145 0.9755,-0.88281 1.33796,-2.79834 1.58202,-8.36075 0.44535,-10.1499 2.02318,-12.98695 13.52977,-24.32746 10.51037,-10.35868 17.39854,-14.86242 28.59307,-18.69522 17.14505,-5.87015 41.09591,-6.38497 61.14594,-1.31433 9.40323,2.37807 22.00028,8.61792 28.64384,14.18849 12.01721,10.07634 22.17081,28.00851 26.09795,46.09131 1.85001,8.51856 1.71087,22.73262 -0.29547,30.18471 -3.37655,12.54135 -8.17981,22.12336 -17.64122,35.19242 -8.82987,12.1967 -15.20446,17.39525 -29.72317,24.2396 -19.24123,9.07062 -49.45202,21.2712 -69.20556,27.94857 -16.55204,5.59515 -21.84669,7.07839 -46.23414,12.95197 -29.17636,7.02697 -35.76737,9.49227 -41.97564,15.70054 -8.85707,8.85706 -10.93517,20.92764 -5.90804,34.31669 4.33488,11.54537 13.48697,17.73112 26.41421,17.85297 3.27358,0.0309 7.79335,-0.3735 10.04394,-0.89856 7.08305,-1.65246 27.62452,-12.21747 56.17167,-28.89055 12.55099,-7.33046 20.8703,-12.66278 39.80377,-25.51252 19.64189,-13.33052 63.1206,-37.56481 79.84902,-44.50646 17.26926,-7.16609 38.04937,-8.37919 52.70345,-3.07672 14.4796,5.23932 30.72132,18.76847 40.20003,33.4861 9.33423,14.49328 12.5701,33.29121 8.38868,48.73172 -2.94049,10.85819 -12.59305,27.21523 -21.48098,36.40127 -10.36189,10.70943 -20.715,15.25422 -53.51628,23.49252 -12.75362,3.20317 -28.04297,7.36478 -33.97634,9.24803 -5.93336,1.88326 -18.65569,5.77788 -28.27183,8.65471 -31.33438,9.37421 -44.09783,14.87504 -50.16068,21.61839 -9.53489,10.60509 -6.62125,31.86603 5.09631,37.18804 4.71585,2.14189 11.09441,1.84342 18.83992,-0.88159 8.41892,-2.96192 12.28991,-3.06954 16.73381,-0.46524 4.92528,2.8864 7.25865,7.84142 7.25865,15.41404 0,8.39402 -1.57714,12.82708 -6.19945,17.42559 -4.37565,4.35311 -8.74516,6.63916 -14.84538,7.76685 -6.35572,1.17492 -16.74304,1.57485 -21.4818,0.8271 z M 360.18689,360.79289 c 3.98967,-1.93136 6.97498,-7.36156 6.97498,-12.68731 0,-6.22631 -4.47155,-13.91478 -9.68174,-16.64697 -2.89428,-1.51774 -8.26627,-2.08334 -10.77814,-1.1348 -2.6418,0.99761 -7.50033,5.507 -8.98927,8.34328 -0.64897,1.23621 -1.05467,4.2464 -1.05467,7.82524 0,6.91453 1.51135,9.76644 7.15765,13.50639 3.03311,2.00905 4.17577,2.32718 8.35891,2.32718 3.37235,0 5.8083,-0.46608 8.01228,-1.53301 z"
       id="path57-1"
       transform="matrix(0.26458333,0,0,0.26458333,215.5408,5.6014497)"
       inkscape:export-filename="Logo_pyPhysChem_1-translucentBgd-woName.png"
       inkscape:export-xdpi="300.008"
       inkscape:export-ydpi="300.008" /><circle
       style="fill:#004455;stroke:none;stroke-width:1;stroke-linejoin:round;stroke-dasharray:none;paint-order:stroke markers fill;filter:url(#filter20-7)"
       id="path54-27"
       cx="319.14264"
       cy="67.478554"
       r="8.4630823" /><circle
       style="fill:#004455;stroke:none;stroke-width:1;stroke-linejoin:round;stroke-dasharray:none;paint-order:stroke markers fill;filter:url(#filter20-7)"
       id="path54-6-0"
       cx="383.67743"
       cy="103.64947"
       r="8.4630823" /><circle
       style="fill:#004455;stroke:none;stroke-width:1;stroke-linejoin:round;stroke-dasharray:none;paint-order:stroke markers fill;filter:url(#filter20-7)"
       id="path54-2-9"
       cx="382.95789"
       cy="177.83737"
       r="8.4630823" /><circle
       style="fill:#004455;stroke:none;stroke-width:1;stroke-linejoin:round;stroke-dasharray:none;paint-order:stroke markers fill;filter:url(#filter20-7)"
       id="path54-3-3"
       cx="318.08188"
       cy="213.33034"
       r="8.4630823" /><circle
       style="fill:#004455;stroke:none;stroke-width:1;stroke-linejoin:round;stroke-dasharray:none;paint-order:stroke markers fill;filter:url(#filter20-7)"
       id="path54-26-6"
       cx="252.38797"
       cy="176.78746"
       r="8.4630823" /><circle
       style="fill:#004455;stroke:none;stroke-width:1;stroke-linejoin:round;stroke-dasharray:none;paint-order:stroke markers fill;filter:url(#filter20-7)"
       id="path54-9-0"
       cx="253.92938"
       cy="104.43864"
       r="8.4630823" /><path
       style="fill:#0088aa;fill-rule:evenodd;stroke:#004455;stroke-width:0.264583px;stroke-linecap:butt;stroke-linejoin:miter;stroke-opacity:1;filter:url(#filter20-7)"
       d="m 262.11313,94.508176 43.17016,-25.41543 c 0,0 0.35884,2.9011 1.07616,4.12945 0.69246,1.18578 2.96132,2.86367 2.96132,2.86367 l -43.49031,25.109154 c 0,0 -0.0955,-2.644294 -0.70052,-3.770364 -0.66196,-1.23213 -3.01681,-2.91648 -3.01681,-2.91648 z"
       id="path56-6"
       sodipodi:nodetypes="ccaccac" /><path
       style="fill:#0088aa;fill-rule:evenodd;stroke:#004455;stroke-width:0.264583px;stroke-linecap:butt;stroke-linejoin:miter;stroke-opacity:1;filter:url(#filter20-7)"
       d="m 248.12595,165.57127 -0.42533,-50.09417 c 0,0 2.69185,1.13979 4.11429,1.13274 1.37315,-0.007 3.96068,-1.13274 3.96068,-1.13274 v 50.21829 c 0,0 -2.33779,-1.23942 -3.61549,-1.27852 -1.39803,-0.0428 -4.03415,1.1544 -4.03415,1.1544 z"
       id="path56-93-2"
       sodipodi:nodetypes="ccaccac" /><path
       style="fill:#0088aa;fill-rule:evenodd;stroke:#004455;stroke-width:0.264583px;stroke-linecap:butt;stroke-linejoin:miter;stroke-opacity:1;filter:url(#filter20-7)"
       d="m 380.28917,165.49511 -0.42533,-50.09417 c 0,0 2.69185,1.13979 4.11429,1.13274 1.37315,-0.007 3.96068,-1.13274 3.96068,-1.13274 v 50.21829 c 0,0 -2.33779,-1.23942 -3.61549,-1.27852 -1.39803,-0.0428 -4.03415,1.1544 -4.03415,1.1544 z"
       id="path56-93-0-6"
       sodipodi:nodetypes="ccaccac" /><path
       style="fill:#0088aa;fill-rule:evenodd;stroke:#004455;stroke-width:0.264583px;stroke-linecap:butt;stroke-linejoin:miter;stroke-opacity:1;filter:url(#filter20-7)"
       d="m 376.15068,93.561946 -43.17016,-25.41543 c 0,0 -0.35884,2.9011 -1.07616,4.12945 -0.69246,1.18578 -2.96132,2.86368 -2.96132,2.86368 l 43.49031,25.109144 c 0,0 0.0955,-2.644294 0.70052,-3.770364 0.66196,-1.23213 3.01681,-2.91648 3.01681,-2.91648 z"
       id="path56-9-1"
       sodipodi:nodetypes="ccaccac" /><path
       style="fill:#0088aa;fill-rule:evenodd;stroke:#004455;stroke-width:0.264583px;stroke-linecap:butt;stroke-linejoin:miter;stroke-opacity:1;filter:url(#filter20-7)"
       d="m 260.91029,186.75494 43.17016,25.41543 c 0,0 0.35885,-2.90111 1.07616,-4.12946 0.69247,-1.18577 2.96132,-2.86367 2.96132,-2.86367 l -43.4903,-25.10914 c 0,0 -0.0955,2.64429 -0.70051,3.77036 -0.66197,1.23213 -3.01682,2.91648 -3.01683,2.91648 z"
       id="path56-97-8"
       sodipodi:nodetypes="ccaccac" /><path
       style="fill:#0088aa;fill-rule:evenodd;stroke:#004455;stroke-width:0.264583px;stroke-linecap:butt;stroke-linejoin:miter;stroke-opacity:1;filter:url(#filter20-7)"
       d="m 374.94782,187.70116 -43.17016,25.41543 c 0,0 -0.35884,-2.9011 -1.07616,-4.12945 -0.69246,-1.18578 -2.96132,-2.86367 -2.96132,-2.86367 l 43.49031,-25.10915 c 0,0 0.0955,2.6443 0.70052,3.77036 0.66196,1.23213 3.01681,2.91648 3.01681,2.91648 z"
       id="path56-9-3-7"
       sodipodi:nodetypes="ccaccac" /></g></svg>
