<?xml version="1.0" encoding="UTF-8" standalone="no"?>
<svg
   id="Calque_1"
   viewBox="0 0 479.88067 169.92024"
   version="1.1"
   sodipodi:docname="Logo-Universite-Toulouse-n-2023.svg"
   width="479.88068"
   height="169.92024"
   inkscape:export-filename="Logo-Universite-Toulouse-n-2023.png"
   inkscape:export-xdpi="300.008"
   inkscape:export-ydpi="300.008"
   inkscape:version="1.2.2 (b0a8486541, 2022-12-01)"
   xmlns:inkscape="http://www.inkscape.org/namespaces/inkscape"
   xmlns:sodipodi="http://sodipodi.sourceforge.net/DTD/sodipodi-0.dtd"
   xmlns="http://www.w3.org/2000/svg"
   xmlns:svg="http://www.w3.org/2000/svg">
  <sodipodi:namedview
     id="namedview57"
     pagecolor="#ffffff"
     bordercolor="#666666"
     borderopacity="1.0"
     inkscape:showpageshadow="2"
     inkscape:pageopacity="0.0"
     inkscape:pagecheckerboard="0"
     inkscape:deskcolor="#d1d1d1"
     showgrid="false"
     inkscape:zoom="1.984658"
     inkscape:cx="131.76073"
     inkscape:cy="85.909007"
     inkscape:window-width="2580"
     inkscape:window-height="1080"
     inkscape:window-x="828"
     inkscape:window-y="216"
     inkscape:window-maximized="0"
     inkscape:current-layer="Calque_1" />
  <defs
     id="defs4">
    <style
       id="style2">.cls-1{fill:#1d1d1b;}</style>
  </defs>
  <g
     id="g46"
     transform="translate(-78.729326,-40.07)">
    <path
       class="cls-1"
       d="m 283.2,68.49 v -22 h 6.85 v 22.48 c 0,9.45 -5.33,14.6 -15.21,14.6 -9.88,0 -15.7,-5.09 -15.7,-14.6 V 46.49 h 6.91 V 68.3 c 0,5.45 2.06,9.15 8.79,9.15 6.73,0 8.36,-3.45 8.36,-8.97 z"
       id="path6" />
    <path
       class="cls-1"
       d="m 303.56,82.86 h -6.48 V 54.38 h 6.36 v 7.52 h 0.55 c 1.58,-5.27 5.21,-8.24 10,-8.24 5.94,0 8.79,4 8.79,10.18 V 82.87 H 316.3 V 65.54 c 0,-3.45 -1.51,-6 -5.45,-6 -4.36,0 -7.27,2.91 -7.27,7.21 v 16.12 z"
       id="path8" />
    <path
       class="cls-1"
       d="m 329.37,49.53 v -5.27 h 7.09 v 5.27 z m 0.24,33.33 V 54.38 h 6.54 v 28.48 z"
       id="path10" />
    <path
       class="cls-1"
       d="M 350.22,82.86 339.67,54.38 h 7.09 l 3.51,11.03 c 1.27,4.06 2.61,8 3.7,11.88 h 1.21 c 1.09,-3.88 2.42,-7.94 3.7,-11.88 l 3.51,-11.03 h 6.91 l -10.48,28.48 z"
       id="path12" />
    <path
       class="cls-1"
       d="m 370.76,68.98 c 0,-9.64 5.45,-15.33 14.36,-15.33 8.91,0 12.79,5.21 12.79,13.03 0,1.09 0,2.36 -0.12,3.82 h -20.54 c 0.48,5.15 3.09,7.76 7.94,7.76 4.55,0 6.12,-2.18 6.91,-4.91 l 5.57,1.57 c -1.33,5.15 -4.91,8.67 -12.54,8.67 -8.73,0 -14.36,-5.09 -14.36,-14.6 z m 6.54,-2.85 h 14.6 c -0.24,-4.91 -2.42,-7.45 -6.97,-7.45 -4.55,0 -7.03,2.36 -7.63,7.45 z"
       id="path14" />
    <path
       class="cls-1"
       d="M 403.18,82.86 V 54.38 h 6.18 v 8.55 l 0.55,0.06 c 1.64,-6.91 4.3,-8.91 8.42,-8.91 h 1.03 v 7.33 h -1.58 c -6,0 -8.12,2.12 -8.12,7.94 v 13.51 z"
       id="path16" />
    <path
       class="cls-1"
       d="m 421.79,74.43 5.88,-1.21 c 0.91,3.45 2.91,5.64 7.51,5.64 3.45,0 5.27,-1.22 5.27,-3.64 0,-2.24 -1.57,-3.33 -7.21,-4.36 C 425.66,69.35 423,66.8 423,62.07 c 0,-5.15 3.76,-8.42 11.33,-8.42 7.57,0 10.48,3.21 11.63,8.24 l -5.88,1.27 c -0.79,-3.52 -2.49,-4.85 -5.88,-4.85 -3.39,0 -5.03,1.27 -5.03,3.39 0,2 1.21,3.39 6.6,4.36 8.42,1.57 10.97,4.42 10.97,8.91 0,5.27 -3.51,8.66 -11.69,8.66 -9.21,0 -12.24,-3.76 -13.27,-9.21 z"
       id="path18" />
    <path
       class="cls-1"
       d="m 451.9,49.53 v -5.27 h 7.09 v 5.27 z m 0.24,33.33 V 54.38 h 6.54 v 28.48 z"
       id="path20" />
    <path
       class="cls-1"
       d="m 467.54,59.65 h -4 v -5.27 h 4 v -7.69 h 6.54 v 7.69 h 8.36 v 5.27 h -8.36 v 13.63 c 0,2.79 1.03,4.24 3.88,4.24 1.45,0 2.73,-0.3 4.12,-0.73 l 0.79,5.82 c -2.12,0.67 -3.58,1.03 -6.42,1.03 -6.24,0 -8.91,-4.12 -8.91,-9.45 z"
       id="path22" />
    <path
       class="cls-1"
       d="m 485.84,68.98 c 0,-9.64 5.46,-15.33 14.36,-15.33 8.9,0 12.78,5.21 12.78,13.03 0,1.09 0,2.36 -0.12,3.82 h -20.54 c 0.48,5.15 3.09,7.76 7.94,7.76 4.54,0 6.12,-2.18 6.91,-4.91 l 5.57,1.57 c -1.33,5.15 -4.91,8.67 -12.54,8.67 -8.73,0 -14.36,-5.09 -14.36,-14.6 z m 6.54,-2.85 h 14.6 c -0.24,-4.91 -2.42,-7.45 -6.97,-7.45 -4.55,0 -7.03,2.36 -7.64,7.45 z m 1.45,-17.88 14.18,-8.18 2.42,4.67 -14.97,6.72 -1.64,-3.21 z"
       id="path24" />
    <path
       class="cls-1"
       d="m 277.99,126.92 h -0.42 c -1.45,4.91 -4.85,8.3 -9.94,8.3 -6.54,0 -10.36,-5.27 -10.36,-14.9 0,-9.63 3.88,-15.15 10.55,-15.09 5.15,-0.06 8.3,3.21 9.76,8.18 H 278 V 95.54 h 6.48 v 38.9 H 278 v -7.51 z m 0,-5.46 v -2.18 c 0,-4.91 -2.85,-8.18 -7.27,-8.18 -4.73,0 -7.03,2.97 -7.03,9.21 0,6.24 2.18,9.09 7.03,9.09 4.36,0 7.27,-3.09 7.27,-7.94 z"
       id="path26" />
    <path
       class="cls-1"
       d="m 289.62,120.55 c 0,-9.64 5.46,-15.33 14.36,-15.33 8.9,0 12.78,5.21 12.78,13.03 0,1.09 0,2.36 -0.12,3.82 H 296.1 c 0.48,5.15 3.09,7.76 7.94,7.76 4.54,0 6.12,-2.18 6.91,-4.91 l 5.57,1.57 c -1.33,5.15 -4.91,8.67 -12.54,8.67 -8.73,0 -14.36,-5.09 -14.36,-14.6 z m 6.54,-2.85 h 14.6 c -0.24,-4.91 -2.42,-7.45 -6.97,-7.45 -4.55,0 -7.03,2.36 -7.64,7.45 z"
       id="path28" />
    <path
       class="cls-1"
       d="m 330.95,98.07 h 29.33 v 6.36 h -11.21 v 30 h -6.91 v -30 h -11.21 z"
       id="path30" />
    <path
       class="cls-1"
       d="m 360.46,120.13 c 0,-9.39 5.63,-14.9 14.48,-14.9 8.85,0 14.36,5.51 14.36,14.9 0,9.39 -5.33,15.09 -14.36,15.09 -9.03,0 -14.48,-5.75 -14.48,-15.09 z m 6.54,-0.06 c 0,5.88 2.42,9.51 7.88,9.51 5.46,0 7.94,-3.64 7.94,-9.51 0,-5.87 -2.67,-9.33 -7.94,-9.33 -5.27,0 -7.88,3.45 -7.88,9.33 z"
       id="path32" />
    <path
       class="cls-1"
       d="M 413.61,126.92 H 413 c -1.58,5.27 -5.21,8.3 -9.94,8.3 -6,0 -8.85,-4.06 -8.85,-10.24 v -19.03 h 6.54 v 17.33 c 0,3.45 1.52,6 5.39,6 4.42,0 7.27,-2.91 7.27,-7.21 v -16.12 h 6.54 v 28.48 h -6.36 v -7.51 z"
       id="path34" />
    <path
       class="cls-1"
       d="m 433.48,134.43 h -6.54 v -38.9 h 6.54 z"
       id="path36" />
    <path
       class="cls-1"
       d="m 438.82,120.13 c 0,-9.39 5.63,-14.9 14.48,-14.9 8.85,0 14.36,5.51 14.36,14.9 0,9.39 -5.33,15.09 -14.36,15.09 -9.03,0 -14.48,-5.75 -14.48,-15.09 z m 6.54,-0.06 c 0,5.88 2.42,9.51 7.88,9.51 5.46,0 7.94,-3.64 7.94,-9.51 0,-5.87 -2.67,-9.33 -7.94,-9.33 -5.27,0 -7.88,3.45 -7.88,9.33 z"
       id="path38" />
    <path
       class="cls-1"
       d="m 491.96,126.92 h -0.61 c -1.58,5.27 -5.21,8.3 -9.94,8.3 -6,0 -8.85,-4.06 -8.85,-10.24 v -19.03 h 6.54 v 17.33 c 0,3.45 1.52,6 5.39,6 4.42,0 7.27,-2.91 7.27,-7.21 v -16.12 h 6.54 v 28.48 h -6.36 v -7.51 z"
       id="path40" />
    <path
       class="cls-1"
       d="m 503.11,126.01 5.88,-1.21 c 0.91,3.45 2.91,5.64 7.51,5.64 3.45,0 5.27,-1.22 5.27,-3.64 0,-2.24 -1.58,-3.33 -7.21,-4.36 -7.57,-1.51 -10.24,-4.06 -10.24,-8.79 0,-5.15 3.76,-8.42 11.33,-8.42 7.57,0 10.48,3.21 11.63,8.24 l -5.88,1.27 c -0.79,-3.52 -2.48,-4.85 -5.88,-4.85 -3.4,0 -5.03,1.27 -5.03,3.39 0,2 1.21,3.39 6.61,4.36 8.42,1.57 10.97,4.42 10.97,8.91 0,5.27 -3.52,8.66 -11.7,8.66 -9.21,0 -12.24,-3.76 -13.27,-9.21 z"
       id="path42" />
    <path
       class="cls-1"
       d="m 531.47,120.55 c 0,-9.64 5.46,-15.33 14.36,-15.33 8.9,0 12.78,5.21 12.78,13.03 0,1.09 0,2.36 -0.12,3.82 h -20.54 c 0.48,5.15 3.09,7.76 7.94,7.76 4.54,0 6.12,-2.18 6.91,-4.91 l 5.57,1.57 c -1.33,5.15 -4.91,8.67 -12.54,8.67 -8.73,0 -14.36,-5.09 -14.36,-14.6 z m 6.54,-2.85 h 14.6 c -0.24,-4.91 -2.42,-7.45 -6.97,-7.45 -4.55,0 -7.03,2.36 -7.64,7.45 z"
       id="path44" />
  </g>
  <g
     id="g54"
     transform="translate(-78.729326,-40.07)">
    <path
       class="cls-1"
       d="M 124.45,154.14 124.81,46.45 H 79.07 l -0.34,102.2 c -0.08,23.86 6.96,43.14 24.44,53.09 9.87,5.37 24.06,8.2 40.81,8.25 12.42,0.04 28.45,-4.76 30.72,-6.28 -19.33,2.42 -50.42,1.7 -50.25,-49.58 z"
       id="path48" />
    <path
       class="cls-1"
       d="m 177.28,46.46 v 7.69 h 18.44 v 45.84 0 c 9.53,0.03 17.25,-7.68 17.25,-17.21 V 54.15 h 18.84 v -7.69 z"
       id="path50" />
    <path
       class="cls-1"
       d="m 212.97,145.56 c -0.12,35.5 -13.39,50.65 -38.27,58.16 15.29,-7.39 20.94,-28.08 21.02,-53.22 v -16.06 c 0.03,-8.48 5.24,-16.05 13.18,-19.01 l 4.07,-1.51 v 31.63 z"
       id="path52" />
  </g>
</svg>
